<svg xmlns="http://www.w3.org/2000/svg" width="70" height="70" viewBox="0 0 70 70" fill="none">
<path d="M0.5 20C0.5 9.23045 9.23045 0.5 20 0.5H69.5V69.5H20C9.23045 69.5 0.5 60.7696 0.5 50V20Z" fill="white"/>
<path d="M41.3709 35.0141C40.5077 34.6115 39.4723 34.6871 38.6687 35.2126C36.2049 36.824 32.7951 36.8235 30.3324 35.2126C29.5292 34.686 28.4939 34.6115 27.6291 35.0136C24.817 36.3298 23 39.1829 23 42.2824V42.8735C23 45.7006 25.3085 48.0001 28.1467 48.0001H40.8538C43.6915 48.0001 46 45.7006 46 42.8735V42.2824C46 39.1824 44.183 36.3298 41.3709 35.0141ZM43.5712 42.8735C43.5712 44.3662 42.3519 45.5808 40.8538 45.5808H28.1467C26.6481 45.5808 25.4288 44.3662 25.4288 42.8735V42.2824C25.4288 40.1162 26.6978 38.123 28.6607 37.2042C28.7031 37.1845 28.7501 37.1751 28.7977 37.1751C28.8667 37.1751 28.9378 37.1954 28.9985 37.235C30.6278 38.3001 32.53 38.8631 34.4997 38.8631C36.4694 38.8631 38.3722 38.3001 40.001 37.235C40.104 37.1678 40.2352 37.1558 40.3377 37.2042C42.3017 38.1225 43.5707 40.1162 43.5707 42.2824V42.8735H43.5712Z" fill="#DACABD"/>
<path d="M34.5002 34.7552C37.7536 34.7552 40.4009 32.1187 40.4009 28.8776C40.4009 25.6365 37.7536 23 34.5002 23C31.2468 23 28.5995 25.6365 28.5995 28.8776C28.5995 32.1187 31.2463 34.7552 34.5002 34.7552ZM34.5002 25.4198C36.4145 25.4198 37.9721 26.9714 37.9721 28.8781C37.9721 30.7849 36.4145 32.3365 34.5002 32.3365C32.5859 32.3365 31.0283 30.7849 31.0283 28.8781C31.0283 26.9714 32.5859 25.4198 34.5002 25.4198Z" fill="#DACABD"/>
<path d="M0.5 20C0.5 9.23045 9.23045 0.5 20 0.5H69.5V69.5H20C9.23045 69.5 0.5 60.7696 0.5 50V20Z" stroke="#DACABD"/>
</svg>