<svg width="128" height="25" viewBox="0 0 128 25" fill="none" xmlns="http://www.w3.org/2000/svg">
<g clip-path="url(#clip0_1_2076)">
<path d="M73.2669 1.92305C73.051 1.33439 72.768 0.834928 72.1586 0.81263H72.1202H71.6117H70.6329C70.5898 0.80817 70.5418 0.803711 70.4938 0.803711H70.0044C69.9565 0.803711 69.9085 0.80817 69.8653 0.81263C69.3567 0.883982 69.1024 1.35669 68.9105 1.90967L61.378 21.4735C61.378 21.7322 61.6035 21.9418 61.8818 21.9418H63.4555C64.0792 21.9418 64.4006 21.4646 64.5877 20.8893L66.0894 16.8133C66.195 16.5324 66.4781 16.3451 66.7995 16.3451H75.1764C75.4931 16.3451 75.7762 16.5324 75.8817 16.8089L77.4458 20.9295C77.6377 21.5047 77.9735 21.9819 78.626 21.9819H80.2717C80.5643 21.9819 80.7994 21.7723 80.7994 21.5137L73.2669 1.92305ZM67.121 14.0306L70.9208 3.73807L74.831 14.0306H67.121Z" fill="#76A62D"/>
<path d="M95.2887 0.865524C95.0872 0.794172 93.9214 0.803091 93.9214 0.803091C93.1393 0.820929 92.6403 0.803091 92.2901 1.2535C92.2373 1.32039 92.199 1.39175 92.1606 1.4631L87.4923 10.8504L82.685 1.46756C82.6466 1.39621 82.6082 1.32485 82.5554 1.25796C82.2052 0.807551 81.7062 0.820929 80.9242 0.807551C80.9242 0.807551 79.7583 0.798632 79.5568 0.869984C79.077 1.03945 79.3937 1.58796 79.6192 2.03837L85.5156 12.9731C85.7843 13.4726 85.9235 14.0211 85.9235 14.5785V21.1786C85.9235 21.6245 86.3121 21.9858 86.7919 21.9858H88.0249C88.5047 21.9858 88.8933 21.6245 88.8933 21.1786V14.6097C88.8933 14.0523 89.0324 13.5038 89.3011 13.0043L95.2216 2.03392C95.4518 1.5835 95.7685 1.03499 95.2887 0.865524Z" fill="#76A62D"/>
<path d="M117.829 11.078L103.675 0.0585225C103.57 -0.0217486 103.416 -0.0172891 103.32 0.0763606L101.228 2.10098L112.786 11.078L101.228 20.055L103.32 22.0796C103.416 22.1732 103.57 22.1777 103.675 22.0974L117.829 11.078Z" fill="#76A62D"/>
<path d="M128 11.1668L113.847 0.14739C113.741 0.0671186 113.587 0.0715781 113.492 0.165228L111.4 2.18984L122.958 11.1668L111.4 20.1438L113.492 22.1684C113.587 22.2621 113.741 22.2665 113.847 22.1863L128 11.1668Z" fill="#76A62D"/>
<path d="M17.3248 0.790039H15.54C15.1658 0.790039 14.8683 1.07099 14.8683 1.41437V21.2815C14.8683 21.6427 15.185 21.9415 15.5784 21.9415H17.296C17.6846 21.9415 18.0061 21.6472 18.0061 21.2815V1.41883C18.0013 1.07099 17.699 0.790039 17.3248 0.790039Z" fill="#76A62D"/>
<path d="M10.9389 19.4213H2.96983V1.41828C2.96983 1.07043 2.66757 0.793945 2.29814 0.793945H0.671689C0.297462 0.793945 0 1.07489 0 1.41828V19.4258V21.0713C0 21.4816 0.355036 21.8116 0.796432 21.8116H2.97462H10.9437C11.3276 21.8116 11.6346 21.5262 11.6346 21.1694V20.0635C11.6298 19.7112 11.318 19.4213 10.9389 19.4213Z" fill="#76A62D"/>
<path d="M59.0415 1.9584C58.0483 1.33407 56.6762 0.892578 54.0518 0.892578H49.9113H48.9709C48.3664 0.892578 47.8723 1.34745 47.8723 1.91381V20.8935C47.8723 21.4732 48.376 21.9459 49.0045 21.9459H49.8777C50.5014 21.9459 51.01 21.4777 51.01 20.8935V13.7627C51.9504 13.7627 55.2033 13.7627 55.5871 13.7627C56.0333 13.7627 61.7618 12.9288 61.7618 7.13143C61.757 4.60735 60.3657 2.79679 59.0415 1.9584ZM54.546 11.5776C54.2485 11.5776 51.3554 11.5776 51.3554 11.5776H51.0052V3.07774H53.5288C55.2608 3.07774 56.1676 3.36761 56.8249 3.78234C57.7029 4.33532 58.6193 5.53047 58.6193 7.19832C58.6241 11.029 54.8434 11.5776 54.546 11.5776Z" fill="#76A62D"/>
<path d="M44.9696 22.4136C44.8449 22.3289 44.7057 22.2665 44.557 22.213C43.3767 21.7938 41.6543 20.6833 40.6948 20.1081C39.9511 19.6621 40.0663 19.3098 40.167 19.1626C40.1862 19.1404 40.2102 19.1136 40.2294 19.0913C40.2342 19.0868 40.2342 19.0868 40.2342 19.0868C41.8654 17.2272 42.8106 14.5783 42.8106 11.2336C42.8106 5.32034 40.0903 0.526367 32.7065 0.526367C25.9128 0.526367 22.6503 5.32034 22.6503 11.2336C22.6503 17.147 24.8429 22.2085 32.7065 22.2085C34.3041 22.2085 35.7723 21.9231 37.0629 21.3701H37.0677C37.4467 21.2185 37.8161 21.2229 38.3247 21.5663C41.971 24.077 43.7798 25.0001 45.0752 25.0001C45.6989 25.0001 45.5885 23.2163 45.5885 23.2163C45.5885 23.2163 45.4974 22.7659 44.9696 22.4136ZM25.8744 11.2782C25.8744 11.2649 25.8744 11.2515 25.8744 11.2336C25.884 7.22009 27.4577 2.96126 32.7161 2.96126C38.6749 2.96126 39.5865 7.22009 39.5913 11.2336C39.5913 11.247 39.5913 11.2604 39.5913 11.2782C39.5913 16.0544 37.9265 19.6844 32.7161 19.6844C26.7332 19.6844 25.8744 15.3052 25.8744 11.2782Z" fill="#76A62D"/>
</g>
<defs>
<clipPath id="clip0_1_2076">
<rect width="128" height="25" fill="white"/>
</clipPath>
</defs>
</svg>
