<svg width="89" height="69" viewBox="0 0 89 69" fill="none" xmlns="http://www.w3.org/2000/svg">
<g clip-path="url(#clip0_1_2103)">
<path d="M16.1308 68.8486V64.2693C16.1308 62.5176 15.062 61.3706 13.2271 61.3706C12.3097 61.3706 11.3121 61.6729 10.6262 62.6688C10.0918 61.833 9.32577 61.3706 8.17675 61.3706C7.41074 61.3706 6.64473 61.6018 6.03904 62.4376V61.5218H4.43576V68.8486H6.03904V64.8028C6.03904 63.5046 6.72489 62.8911 7.79375 62.8911C8.8626 62.8911 9.39703 63.5758 9.39703 64.8028V68.8486H11.0003V64.8028C11.0003 63.5046 11.7663 62.8911 12.755 62.8911C13.8239 62.8911 14.3583 63.5758 14.3583 64.8028V68.8486H16.1308ZM39.9128 61.5218H37.312V59.3077H35.7087V61.5218H34.2568V62.9711H35.7087V66.3322C35.7087 68.0127 36.3945 68.9997 38.2294 68.9997C38.9152 68.9997 39.6813 68.7685 40.2157 68.4662L39.7525 67.088C39.2893 67.3903 38.7549 67.4703 38.3719 67.4703C37.6059 67.4703 37.3031 67.008 37.3031 66.2522V62.9711H39.9039V61.5218H39.9128ZM53.5229 61.3617C52.6055 61.3617 51.9909 61.8241 51.6079 62.4287V61.5129H50.0046V68.8397H51.6079V64.7139C51.6079 63.4957 52.1423 62.8022 53.1399 62.8022C53.4428 62.8022 53.8258 62.8822 54.1375 62.9533L54.6007 61.4239C54.28 61.3617 53.8258 61.3617 53.5229 61.3617ZM32.9564 62.1264C32.1904 61.5929 31.1215 61.3617 29.9725 61.3617C28.1376 61.3617 26.9173 62.2776 26.9173 63.7269C26.9173 64.9451 27.8348 65.6386 29.4381 65.8609L30.2041 65.941C31.0413 66.0921 31.5045 66.3233 31.5045 66.7057C31.5045 67.2392 30.8899 67.6215 29.8211 67.6215C28.7522 67.6215 27.906 67.2392 27.3716 66.8568L26.6056 68.075C27.4429 68.6885 28.5919 68.9908 29.7409 68.9908C31.8786 68.9908 33.1078 67.995 33.1078 66.6256C33.1078 65.3274 32.1102 64.6428 30.5871 64.4116L29.8211 64.3316C29.1352 64.2515 28.6008 64.1004 28.6008 63.6469C28.6008 63.1134 29.1352 62.8111 29.9814 62.8111C30.8988 62.8111 31.8163 63.1934 32.2794 63.4246L32.9564 62.1264ZM75.6126 61.3617C74.6952 61.3617 74.0806 61.8241 73.6976 62.4287V61.5129H72.0943V68.8397H73.6976V64.7139C73.6976 63.4957 74.232 62.8022 75.2296 62.8022C75.5324 62.8022 75.9154 62.8822 76.2272 62.9533L76.6904 61.4417C76.3786 61.3617 75.9244 61.3617 75.6126 61.3617ZM55.1262 65.1852C55.1262 67.3992 56.6582 68.9997 59.0275 68.9997C60.0964 68.9997 60.8624 68.7685 61.6284 68.1639L60.8624 66.8657C60.2478 67.3281 59.6421 67.5504 58.9474 67.5504C57.6469 67.5504 56.7295 66.6345 56.7295 65.1852C56.7295 63.8069 57.6469 62.8911 58.9474 62.82C59.6332 62.82 60.2478 63.0511 60.8624 63.5046L61.6284 62.2064C60.8624 61.5929 60.0964 61.3706 59.0275 61.3706C56.6582 61.3617 55.1262 62.9711 55.1262 65.1852ZM69.9566 65.1852V61.5218H68.3533V62.4376C67.8189 61.7529 67.0529 61.3706 66.0553 61.3706C63.9888 61.3706 62.3855 62.9711 62.3855 65.1852C62.3855 67.3992 63.9888 68.9997 66.0553 68.9997C67.1241 68.9997 67.8901 68.6174 68.3533 67.9327V68.8486H69.9566V65.1852ZM64.069 65.1852C64.069 63.887 64.9062 62.82 66.2868 62.82C67.5873 62.82 68.5047 63.8158 68.5047 65.1852C68.5047 66.4834 67.5873 67.5504 66.2868 67.5504C64.9151 67.4703 64.069 66.4745 64.069 65.1852ZM44.883 61.3617C42.7453 61.3617 41.2133 62.8911 41.2133 65.1763C41.2133 67.4703 42.7453 68.9908 44.9632 68.9908C46.032 68.9908 47.1009 68.6885 47.9471 67.995L47.1811 66.8479C46.5665 67.3103 45.8005 67.6126 45.0434 67.6126C44.0457 67.6126 43.0571 67.1502 42.8255 65.8609H48.2499C48.2499 65.6298 48.2499 65.4786 48.2499 65.2474C48.3212 62.8911 46.9406 61.3617 44.883 61.3617ZM44.883 62.7399C45.8806 62.7399 46.5665 63.3535 46.7179 64.4916H42.8967C43.0482 63.5046 43.734 62.7399 44.883 62.7399ZM84.7157 65.1852V58.623H83.1124V62.4376C82.578 61.7529 81.812 61.3706 80.8144 61.3706C78.7479 61.3706 77.1446 62.9711 77.1446 65.1852C77.1446 67.3992 78.7479 68.9997 80.8144 68.9997C81.8832 68.9997 82.6492 68.6174 83.1124 67.9327V68.8486H84.7157V65.1852ZM78.8281 65.1852C78.8281 63.887 79.6654 62.82 81.046 62.82C82.3464 62.82 83.2638 63.8158 83.2638 65.1852C83.2638 66.4834 82.3464 67.5504 81.046 67.5504C79.6654 67.4703 78.8281 66.4745 78.8281 65.1852ZM25.1537 65.1852V61.5218H23.5505V62.4376C23.016 61.7529 22.25 61.3706 21.2524 61.3706C19.186 61.3706 17.5827 62.9711 17.5827 65.1852C17.5827 67.3992 19.186 68.9997 21.2524 68.9997C22.3213 68.9997 23.0873 68.6174 23.5505 67.9327V68.8486H25.1537V65.1852ZM19.1949 65.1852C19.1949 63.887 20.0321 62.82 21.4127 62.82C22.7132 62.82 23.6306 63.8158 23.6306 65.1852C23.6306 66.4834 22.7132 67.5504 21.4127 67.5504C20.0321 67.4703 19.1949 66.4745 19.1949 65.1852Z" fill="black"/>
<path d="M56.5068 5.87793H32.4219V49.0741H56.5068V5.87793Z" fill="#FF5A00"/>
<path d="M34.0252 27.4755C34.0252 18.6994 38.1581 10.9102 44.5 5.87745C39.8327 2.21405 33.9451 0 27.523 0C12.3096 0 0 12.2884 0 27.4755C0 42.6626 12.3096 54.951 27.523 54.951C33.9451 54.951 39.8327 52.737 44.5 49.0736C38.1492 44.112 34.0252 36.2517 34.0252 27.4755Z" fill="#FF2933"/>
<path d="M89 27.4755C89 42.6626 76.6904 54.951 61.477 54.951C55.0549 54.951 49.1673 52.737 44.5 49.0736C50.922 44.032 54.9748 36.2517 54.9748 27.4755C54.9748 18.6994 50.8419 10.9102 44.5 5.87745C49.1584 2.21405 55.046 0 61.4681 0C76.6903 0 89 12.3684 89 27.4755Z" fill="#F79E1B"/>
</g>
<defs>
<clipPath id="clip0_1_2103">
<rect width="89" height="69" fill="white"/>
</clipPath>
</defs>
</svg>
