<svg width="288" height="54" viewBox="0 0 288 54" fill="none" xmlns="http://www.w3.org/2000/svg">
<g clip-path="url(#clip0_1_2052)">
<path fill-rule="evenodd" clip-rule="evenodd" d="M65.2188 15.542C65.2188 15.542 65.2188 15.542 69.8061 15.542C71.4017 15.542 72.3989 16.339 72.3989 18.1324C72.3989 18.1324 72.3989 18.1324 72.3989 24.708C72.3989 24.708 72.3989 24.708 81.374 24.708C81.374 24.708 81.374 24.708 81.374 18.1324C81.374 16.339 82.1718 15.542 84.1662 15.542C84.1662 15.542 84.1662 15.542 88.554 15.542C88.554 15.542 88.554 15.542 88.554 19.9258C88.554 19.9258 88.554 19.9258 86.759 19.9258L86.5596 20.125C86.5596 20.125 86.5596 20.125 86.5596 38.6564C86.5596 38.6564 86.5596 38.6564 81.5734 38.6564C81.5734 38.6564 81.5734 38.6564 81.5734 29.4903C81.5734 29.4903 81.5734 29.4903 72.5983 29.4903C72.5983 29.4903 72.5983 29.4903 72.5983 38.6564C72.5983 38.6564 72.5983 38.6564 67.6122 38.6564C67.6122 38.6564 67.6122 38.6564 67.6122 20.125C67.6122 20.125 67.6122 19.9258 67.4127 19.9258C67.4127 19.9258 67.4127 19.9258 65.6177 19.9258C65.2188 19.9258 65.2188 19.9258 65.2188 15.542Z" fill="#FF2933"/>
<path fill-rule="evenodd" clip-rule="evenodd" d="M103.712 15.3428L101.319 15.1436H101.119C94.5374 15.1436 89.1523 20.3244 89.1523 26.9C89.1523 33.6749 94.5374 39.055 101.119 39.055H101.319L103.712 38.8557C109.296 37.6602 113.285 32.8779 113.285 26.9C113.485 21.1214 109.296 16.5384 103.712 15.3428ZM103.911 33.6749L101.319 34.2727H101.119C97.3296 34.2727 94.5374 31.0845 94.5374 26.9C94.5374 22.9148 97.5291 19.9258 101.119 19.9258H101.319L103.911 20.5236C106.305 21.5199 108.1 24.1103 108.1 26.9C108.299 29.8889 106.504 32.4793 103.911 33.6749Z" fill="#FF2933"/>
<path fill-rule="evenodd" clip-rule="evenodd" d="M124.654 34.0734H123.058C121.662 34.0734 121.662 34.0734 121.662 34.0734C121.463 34.0734 121.463 34.0734 121.463 33.8741C121.463 28.6933 121.463 28.6933 121.463 28.6933C122.46 28.6933 123.058 28.6933 123.657 28.6933H124.654C125.053 28.6933 125.053 28.6933 125.053 28.6933C126.648 28.6933 127.845 29.6896 127.845 31.2837C127.845 32.8778 126.848 33.8741 125.053 33.8741H124.654V34.0734ZM125.053 38.6564C129.839 38.6564 133.23 36.066 133.23 31.6822C133.23 29.4903 132.033 27.2984 130.039 26.5014C131.036 25.5051 132.033 24.1103 132.033 21.7191C132.033 17.9331 129.241 15.542 124.853 15.542H124.654H121.263C114.283 15.542 114.283 15.542 114.283 15.542C114.283 19.9258 114.283 19.9258 114.283 19.9258C116.277 19.9258 116.277 19.9258 116.277 19.9258V35.8667C116.277 37.6601 117.075 38.4571 118.67 38.4571C121.662 38.4571 123.258 38.4571 123.856 38.4571H125.053V38.6564ZM124.853 24.5088H122.859C121.463 24.5088 121.463 24.5088 121.463 24.5088C121.463 19.7265 121.463 19.7265 121.463 19.7265C123.058 19.7265 124.055 19.7265 124.454 19.7265H124.853C126.249 19.7265 127.047 20.5235 127.047 21.9184C127.047 23.5125 126.249 24.5088 124.853 24.5088Z" fill="#FF2933"/>
<path fill-rule="evenodd" clip-rule="evenodd" d="M154.97 34.0734C154.571 34.0734 154.571 34.0734 154.371 33.8741C147.59 15.542 147.59 15.542 147.59 15.542H144.997H144.599C142.405 15.542 142.405 15.542 142.405 15.542C136.022 33.8741 136.022 33.8741 136.022 33.8741C135.823 34.0734 135.823 34.0734 135.424 34.0734C134.427 34.0734 134.427 34.0734 134.427 34.0734C134.427 38.6564 134.427 38.6564 134.427 38.6564C137.618 38.6564 137.618 38.6564 137.618 38.6564C139.214 38.6564 140.011 38.0586 140.61 36.6638C142.006 32.8778 142.006 32.8778 142.006 32.8778C142.804 32.8778 143.601 32.8778 144.2 32.8778H145.396H145.995C148.787 32.8778 148.787 32.8778 148.787 32.8778C150.183 36.4645 150.183 36.4645 150.183 36.4645C150.582 38.0586 151.38 38.6564 153.175 38.6564C156.166 38.6564 156.166 38.6564 156.166 38.6564C156.166 34.0734 156.166 34.0734 156.166 34.0734C154.97 34.0734 154.97 34.0734 154.97 34.0734ZM145.197 28.494H144.798C143.003 28.494 143.003 28.494 143.003 28.494C144.599 23.7117 144.599 23.7117 144.599 23.7117C144.599 23.1139 144.798 22.5162 144.997 22.1176C145.197 22.5162 145.396 23.1139 145.396 23.7117C146.992 28.494 146.992 28.494 146.992 28.494H145.197Z" fill="#FF2933"/>
<path fill-rule="evenodd" clip-rule="evenodd" d="M165.939 15.542C165.939 15.542 165.939 15.542 184.089 15.542C185.684 15.542 186.881 16.339 186.881 18.1324C186.881 18.1324 186.881 18.1324 186.881 33.6748C186.881 33.8741 186.881 33.8741 187.08 33.8741C187.08 33.8741 187.08 33.8741 188.676 33.8741C188.676 33.8741 188.676 33.8741 188.676 38.4571C188.676 38.4571 188.676 38.4571 184.288 38.4571C182.493 38.4571 181.496 37.6601 181.496 35.8667C181.496 35.8667 181.496 35.8667 181.496 20.125C181.496 20.125 181.496 19.9258 181.296 19.9258C181.296 19.9258 181.296 19.9258 172.92 19.9258C172.92 19.9258 172.92 19.9258 172.92 38.6564C172.92 38.6564 172.92 38.6564 167.934 38.6564C167.934 38.6564 167.934 38.6564 167.934 19.9258C167.934 19.9258 167.934 19.9258 165.939 19.9258C165.939 19.9258 165.939 19.9258 165.939 15.542Z" fill="#FF2933"/>
<path fill-rule="evenodd" clip-rule="evenodd" d="M204.233 15.3428L201.839 15.1436H201.64C195.058 15.1436 189.873 20.3244 189.873 26.9C189.873 33.6749 195.058 39.055 201.64 39.055H201.839L204.233 38.8557C209.817 37.6602 213.806 32.8779 213.806 26.9C213.806 21.1214 209.817 16.5384 204.233 15.3428ZM204.432 33.6749L201.839 34.2727H201.64C197.85 34.2727 195.058 31.0845 195.058 26.9C195.058 22.9148 198.05 19.9258 201.64 19.9258H201.839L204.432 20.5236C206.826 21.5199 208.621 24.1103 208.621 26.9C208.621 29.8889 207.025 32.4793 204.432 33.6749Z" fill="#FF2933"/>
<path fill-rule="evenodd" clip-rule="evenodd" d="M214.803 15.5423C214.803 15.5423 214.803 15.5423 219.391 15.5423C220.986 15.5423 221.784 16.3393 221.784 18.1327C221.784 18.1327 221.784 18.1327 221.784 33.6751C221.784 33.8744 221.784 33.8744 221.983 33.8744C221.983 33.8744 221.983 33.8744 227.967 33.8744C227.967 33.8744 227.967 33.8744 227.967 15.343C227.967 15.343 227.967 15.343 232.953 15.343C232.953 15.343 232.953 15.343 232.953 33.8744C232.953 33.8744 232.953 33.8744 238.936 33.8744C239.136 33.8744 239.136 33.8744 239.136 33.6751C239.136 33.6751 239.136 33.6751 239.136 18.1327C239.136 16.3393 239.934 15.5423 241.529 15.5423C241.529 15.5423 241.529 15.5423 246.116 15.5423C246.116 15.5423 246.116 15.5423 246.116 19.926C246.116 19.926 246.116 19.926 244.321 19.926C244.122 19.926 244.122 20.1253 244.122 20.1253C244.122 20.1253 244.122 20.1253 244.122 35.867C244.122 37.6604 243.324 38.4574 241.729 38.4574C241.729 38.4574 241.729 38.4574 219.59 38.4574C217.795 38.4574 216.798 37.6604 216.798 35.867C216.798 35.867 216.798 35.867 216.798 20.1253C216.798 20.1253 216.798 19.926 216.598 19.926C216.598 19.926 216.598 19.926 214.803 19.926C214.803 19.926 214.803 19.926 214.803 15.5423Z" fill="#FF2933"/>
<path fill-rule="evenodd" clip-rule="evenodd" d="M250.305 15.542C250.305 15.542 250.305 15.542 265.862 15.542C267.657 15.542 268.454 16.339 268.454 17.9331C268.454 17.9331 268.454 17.9331 268.454 21.9184H263.867C263.867 21.9184 263.867 21.9184 263.867 20.125C263.867 19.9258 263.867 19.9258 263.668 19.9258C263.668 19.9258 263.668 19.9258 260.676 19.9258C260.676 19.9258 260.676 19.9258 260.676 38.6564C260.676 38.6564 260.676 38.6564 255.69 38.6564C255.69 38.6564 255.69 38.6564 255.69 19.9258C255.69 19.9258 255.69 19.9258 252.698 19.9258C252.499 19.9258 252.499 19.9258 252.499 20.125C252.499 20.125 252.499 20.125 252.499 21.9184C252.499 21.9184 252.499 21.9184 247.911 21.9184C247.911 21.9184 247.911 21.9184 247.911 17.9331C248.111 16.339 248.709 15.542 250.305 15.542Z" fill="#FF2933"/>
<path fill-rule="evenodd" clip-rule="evenodd" d="M287.202 34.0734C286.803 34.0734 286.803 34.0734 286.604 33.8741C280.022 15.542 280.022 15.542 280.022 15.542H277.629H277.23C275.036 15.542 275.036 15.542 275.036 15.542C268.454 33.8741 268.454 33.8741 268.454 33.8741C268.255 34.0734 268.255 34.0734 267.856 34.0734C266.859 34.0734 266.859 34.0734 266.859 34.0734C266.859 38.6564 266.859 38.6564 266.859 38.6564C270.05 38.6564 270.05 38.6564 270.05 38.6564C271.645 38.6564 272.643 38.0586 273.042 36.4645C274.438 32.8778 274.438 32.8778 274.438 32.8778C275.235 32.8778 276.033 32.8778 276.632 32.8778H277.828H278.427C281.219 32.8778 281.219 32.8778 281.219 32.8778C282.615 36.4645 282.615 36.4645 282.615 36.4645C283.014 38.0586 283.812 38.6564 285.607 38.6564C288.598 38.6564 288.598 38.6564 288.598 38.6564C288.598 34.0734 288.598 34.0734 288.598 34.0734H287.202ZM277.429 28.494H277.03C275.235 28.494 275.235 28.494 275.235 28.494C276.831 23.7117 276.831 23.7117 276.831 23.7117C276.831 23.1139 277.03 22.5162 277.23 22.1176C277.429 22.5162 277.629 23.1139 277.629 23.7117C279.224 28.494 279.224 28.494 279.224 28.494H277.429Z" fill="#FF2933"/>
<path fill-rule="evenodd" clip-rule="evenodd" d="M43.8781 15.9414C44.0775 15.9414 44.277 15.9414 44.4764 16.3399C44.4764 16.3399 44.4764 16.3399 54.2493 25.9045C54.8476 26.5023 54.8476 27.2993 54.2493 27.6979C54.2493 27.6979 54.2493 27.6979 44.4764 37.4617C44.277 37.8602 44.0775 37.8602 43.8781 37.8602C43.6787 37.8602 43.6786 37.4617 43.6786 37.0632V16.5392C43.6786 16.3399 43.6787 16.1407 43.8781 15.9414Z" fill="#FF2933"/>
<path fill-rule="evenodd" clip-rule="evenodd" d="M27.1247 0H27.723L28.3213 0.199262C28.3213 0.199262 28.3213 0.199262 38.4931 10.1624C38.892 10.7601 38.6925 11.1587 38.0942 11.1587C38.0942 11.1587 38.0942 11.1587 33.9058 11.1587C33.108 11.1587 32.5097 11.7565 32.5097 12.3542C32.5097 12.3542 32.5097 12.3542 32.5097 19.7269C32.5097 20.524 31.9114 20.9225 31.1136 20.9225C31.1136 20.9225 31.1136 20.9225 23.7341 20.9225C22.9363 20.9225 22.338 20.3247 22.338 19.7269C22.338 19.7269 22.338 19.7269 22.338 12.3542C22.338 11.5572 21.7396 11.1587 20.9418 11.1587H16.7535C15.9557 11.3579 15.7562 10.9594 16.1551 10.3616C16.1551 10.3616 16.1551 10.3616 26.3269 0.398524C26.3269 0.199262 27.1247 0 27.1247 0Z" fill="#FF2933"/>
<path fill-rule="evenodd" clip-rule="evenodd" d="M11.169 15.7412C11.3684 15.7412 11.3684 16.1397 11.3684 16.5383V37.4608C11.3684 37.8593 11.169 38.0586 11.169 38.0586C10.9695 38.0586 10.7701 38.0586 10.3712 37.8593C10.3712 37.8593 10.3712 37.8593 0.398888 27.8962C-0.19945 27.4977 -0.19945 26.7006 0.398888 26.1028C0.398888 26.1028 0.398888 26.1028 10.3712 16.1397C10.7701 15.7412 10.9695 15.7412 11.169 15.7412Z" fill="#FF2933"/>
<path fill-rule="evenodd" clip-rule="evenodd" d="M23.7341 32.2805C23.7341 32.2805 23.7341 32.2805 31.1136 32.2805C31.9114 32.2805 32.5097 32.8783 32.5097 33.4761C32.5097 33.4761 32.5097 33.4761 32.5097 41.4466C32.5097 42.2436 33.108 42.8414 33.9058 42.8414H37.8947C38.6925 42.8414 38.892 43.2399 38.2936 43.6384C38.2936 43.6384 38.2936 43.6384 28.5208 53.6015C28.3213 53.8008 27.9224 54.0001 27.5236 54.0001C27.1247 54.0001 26.7258 53.8008 26.5263 53.6015C26.5263 53.6015 26.5263 53.6015 16.7535 43.6384C16.1551 43.2399 16.554 42.8414 17.1524 42.8414C17.1524 42.8414 17.1524 42.8414 21.3407 42.8414C22.1385 42.8414 22.7369 42.2436 22.7369 41.4466C22.7369 41.4466 22.7369 41.4466 22.7369 33.4761C22.5374 32.8783 23.1357 32.2805 23.7341 32.2805Z" fill="#FF2933"/>
</g>
<defs>
<clipPath id="clip0_1_2052">
<rect width="288" height="54" fill="white"/>
</clipPath>
</defs>
</svg>
