<svg xmlns="http://www.w3.org/2000/svg" width="183" height="34" viewBox="0 0 183 34" fill="none">
  <g clip-path="url(#clip0_1_346)">
    <path fill-rule="evenodd" clip-rule="evenodd" d="M41.4412 9.78589C41.4412 9.78589 41.4412 9.78589 44.356 9.78589C45.3698 9.78589 46.0035 10.2877 46.0035 11.4169C46.0035 11.4169 46.0035 11.4169 46.0035 15.5571C46.0035 15.5571 46.0035 15.5571 51.7064 15.5571C51.7064 15.5571 51.7064 15.5571 51.7064 11.4169C51.7064 10.2877 52.2133 9.78589 53.4806 9.78589C53.4806 9.78589 53.4806 9.78589 56.2687 9.78589C56.2687 9.78589 56.2687 9.78589 56.2687 12.546C56.2687 12.546 56.2687 12.546 55.1281 12.546L55.0014 12.6715C55.0014 12.6715 55.0014 12.6715 55.0014 24.3394C55.0014 24.3394 55.0014 24.3394 51.8331 24.3394C51.8331 24.3394 51.8331 24.3394 51.8331 18.5682C51.8331 18.5682 51.8331 18.5682 46.1302 18.5682C46.1302 18.5682 46.1302 18.5682 46.1302 24.3394C46.1302 24.3394 46.1302 24.3394 42.9619 24.3394C42.9619 24.3394 42.9619 24.3394 42.9619 12.6715C42.9619 12.6715 42.9619 12.546 42.8352 12.546C42.8352 12.546 42.8352 12.546 41.6946 12.546C41.4412 12.546 41.4412 12.546 41.4412 9.78589Z" fill="#FF2933"/>
    <path fill-rule="evenodd" clip-rule="evenodd" d="M65.9003 9.66037L64.3795 9.53491H64.2528C60.0707 9.53491 56.6489 12.7969 56.6489 16.9371C56.6489 21.2028 60.0707 24.5903 64.2528 24.5903H64.3795L65.9003 24.4648C69.4488 23.712 71.9834 20.701 71.9834 16.9371C72.1101 13.2987 69.4488 10.4131 65.9003 9.66037ZM66.027 21.2028L64.3795 21.5792H64.2528C61.8449 21.5792 60.0707 19.5718 60.0707 16.9371C60.0707 14.4279 61.9716 12.546 64.2528 12.546H64.3795L66.027 12.9224C67.5478 13.5497 68.6884 15.1807 68.6884 16.9371C68.8151 18.819 67.6745 20.45 66.027 21.2028Z" fill="#FF2933"/>
    <path fill-rule="evenodd" clip-rule="evenodd" d="M79.2071 21.4538H78.1932C77.3061 21.4538 77.3061 21.4538 77.3061 21.4538C77.1794 21.4538 77.1794 21.4538 77.1794 21.3283C77.1794 18.0663 77.1794 18.0663 77.1794 18.0663C77.8131 18.0663 78.1932 18.0663 78.5734 18.0663H79.2071C79.4606 18.0663 79.4606 18.0663 79.4606 18.0663C80.4744 18.0663 81.2348 18.6936 81.2348 19.6973C81.2348 20.701 80.6011 21.3283 79.4606 21.3283H79.2071V21.4538ZM79.4606 24.3394C82.5021 24.3394 84.6565 22.7084 84.6565 19.9482C84.6565 18.5682 83.8961 17.1881 82.6288 16.6863C83.2625 16.059 83.8961 15.1807 83.8961 13.6752C83.8961 11.2914 82.1219 9.78589 79.3338 9.78589H79.2071H77.0527C72.6171 9.78589 72.6171 9.78589 72.6171 9.78589C72.6171 12.546 72.6171 12.546 72.6171 12.546C73.8844 12.546 73.8844 12.546 73.8844 12.546V22.5829C73.8844 23.7121 74.3913 24.2139 75.4052 24.2139C77.3061 24.2139 78.32 24.2139 78.7002 24.2139H79.4606V24.3394ZM79.3338 15.4316H78.0665C77.1794 15.4316 77.1794 15.4316 77.1794 15.4316C77.1794 12.4206 77.1794 12.4206 77.1794 12.4206C78.1932 12.4206 78.8269 12.4206 79.0804 12.4206H79.3338C80.2209 12.4206 80.7279 12.9224 80.7279 13.8006C80.7279 14.8043 80.2209 15.4316 79.3338 15.4316Z" fill="#FF2933"/>
    <path fill-rule="evenodd" clip-rule="evenodd" d="M98.4703 21.4538C98.2168 21.4538 98.2168 21.4538 98.0901 21.3283C93.7812 9.78589 93.7812 9.78589 93.7812 9.78589H92.1337H91.8802C90.4862 9.78589 90.4862 9.78589 90.4862 9.78589C86.4308 21.3283 86.4308 21.3283 86.4308 21.3283C86.304 21.4538 86.3041 21.4538 86.0506 21.4538C85.4169 21.4538 85.4169 21.4538 85.4169 21.4538C85.4169 24.3394 85.4169 24.3394 85.4169 24.3394C87.4446 24.3394 87.4446 24.3394 87.4446 24.3394C88.4585 24.3394 88.9654 23.963 89.3456 23.0848C90.2327 20.701 90.2327 20.701 90.2327 20.701C90.7396 20.701 91.2466 20.701 91.6268 20.701H92.3872H92.7673C94.5416 20.701 94.5416 20.701 94.5416 20.701C95.4287 22.9593 95.4287 22.9593 95.4287 22.9593C95.6822 23.963 96.1891 24.3394 97.3297 24.3394C99.2306 24.3394 99.2306 24.3394 99.2306 24.3394C99.2306 21.4538 99.2306 21.4538 99.2306 21.4538C98.4703 21.4538 98.4703 21.4538 98.4703 21.4538ZM92.2604 17.9409H92.007C90.8664 17.9409 90.8664 17.9409 90.8664 17.9409C91.8802 14.9298 91.8802 14.9298 91.8802 14.9298C91.8802 14.5534 92.007 14.177 92.1337 13.9261C92.2604 14.177 92.3872 14.5534 92.3872 14.9298C93.401 17.9409 93.401 17.9409 93.401 17.9409H92.2604Z" fill="#FF2933"/>
    <path fill-rule="evenodd" clip-rule="evenodd" d="M105.44 9.78589C105.44 9.78589 105.44 9.78589 116.973 9.78589C117.987 9.78589 118.747 10.2877 118.747 11.4169C118.747 11.4169 118.747 11.4169 118.747 21.2029C118.747 21.3283 118.747 21.3283 118.874 21.3283C118.874 21.3283 118.874 21.3283 119.888 21.3283C119.888 21.3283 119.888 21.3283 119.888 24.2139C119.888 24.2139 119.888 24.2139 117.1 24.2139C115.959 24.2139 115.325 23.7121 115.325 22.5829C115.325 22.5829 115.325 22.5829 115.325 12.6715C115.325 12.6715 115.325 12.546 115.199 12.546C115.199 12.546 115.199 12.546 109.876 12.546C109.876 12.546 109.876 12.546 109.876 24.3394C109.876 24.3394 109.876 24.3394 106.708 24.3394C106.708 24.3394 106.708 24.3394 106.708 12.546C106.708 12.546 106.708 12.546 105.44 12.546C105.44 12.546 105.44 12.546 105.44 9.78589Z" fill="#FF2933"/>
    <path fill-rule="evenodd" clip-rule="evenodd" d="M129.773 9.66037L128.252 9.53491H128.125C123.943 9.53491 120.648 12.7969 120.648 16.9371C120.648 21.2028 123.943 24.5903 128.125 24.5903H128.252L129.773 24.4648C133.321 23.712 135.856 20.701 135.856 16.9371C135.856 13.2987 133.321 10.4131 129.773 9.66037ZM129.9 21.2028L128.252 21.5792H128.125C125.717 21.5792 123.943 19.5718 123.943 16.9371C123.943 14.4279 125.844 12.546 128.125 12.546H128.252L129.9 12.9224C131.42 13.5497 132.561 15.1807 132.561 16.9371C132.561 18.819 131.547 20.45 129.9 21.2028Z" fill="#FF2933"/>
    <path fill-rule="evenodd" clip-rule="evenodd" d="M136.49 9.78586C136.49 9.78586 136.49 9.78586 139.404 9.78586C140.418 9.78586 140.925 10.2877 140.925 11.4169C140.925 11.4169 140.925 11.4169 140.925 21.2028C140.925 21.3283 140.925 21.3283 141.052 21.3283C141.052 21.3283 141.052 21.3283 144.854 21.3283C144.854 21.3283 144.854 21.3283 144.854 9.6604C144.854 9.6604 144.854 9.6604 148.022 9.6604C148.022 9.6604 148.022 9.6604 148.022 21.3283C148.022 21.3283 148.022 21.3283 151.824 21.3283C151.951 21.3283 151.951 21.3283 151.951 21.2028C151.951 21.2028 151.951 21.2028 151.951 11.4169C151.951 10.2877 152.458 9.78586 153.472 9.78586C153.472 9.78586 153.472 9.78586 156.386 9.78586C156.386 9.78586 156.386 9.78586 156.386 12.546C156.386 12.546 156.386 12.546 155.246 12.546C155.119 12.546 155.119 12.6715 155.119 12.6715C155.119 12.6715 155.119 12.6715 155.119 22.5829C155.119 23.7121 154.612 24.2139 153.598 24.2139C153.598 24.2139 153.598 24.2139 139.531 24.2139C138.391 24.2139 137.757 23.7121 137.757 22.5829C137.757 22.5829 137.757 22.5829 137.757 12.6715C137.757 12.6715 137.757 12.546 137.63 12.546C137.63 12.546 137.63 12.546 136.49 12.546C136.49 12.546 136.49 12.546 136.49 9.78586Z" fill="#FF2933"/>
    <path fill-rule="evenodd" clip-rule="evenodd" d="M159.048 9.78589C159.048 9.78589 159.048 9.78589 168.933 9.78589C170.073 9.78589 170.58 10.2877 170.58 11.2914C170.58 11.2914 170.58 11.2914 170.58 13.8006H167.665C167.665 13.8006 167.665 13.8006 167.665 12.6715C167.665 12.546 167.665 12.546 167.539 12.546C167.539 12.546 167.539 12.546 165.638 12.546C165.638 12.546 165.638 12.546 165.638 24.3394C165.638 24.3394 165.638 24.3394 162.469 24.3394C162.469 24.3394 162.469 24.3394 162.469 12.546C162.469 12.546 162.469 12.546 160.569 12.546C160.442 12.546 160.442 12.546 160.442 12.6715C160.442 12.6715 160.442 12.6715 160.442 13.8006C160.442 13.8006 160.442 13.8006 157.527 13.8006C157.527 13.8006 157.527 13.8006 157.527 11.2914C157.654 10.2877 158.034 9.78589 159.048 9.78589Z" fill="#FF2933"/>
    <path fill-rule="evenodd" clip-rule="evenodd" d="M182.493 21.4538C182.24 21.4538 182.24 21.4538 182.113 21.3283C177.931 9.78589 177.931 9.78589 177.931 9.78589H176.41H176.156C174.762 9.78589 174.762 9.78589 174.762 9.78589C170.58 21.3283 170.58 21.3283 170.58 21.3283C170.454 21.4538 170.454 21.4538 170.2 21.4538C169.566 21.4538 169.566 21.4538 169.566 21.4538C169.566 24.3394 169.566 24.3394 169.566 24.3394C171.594 24.3394 171.594 24.3394 171.594 24.3394C172.608 24.3394 173.242 23.963 173.495 22.9593C174.382 20.701 174.382 20.701 174.382 20.701C174.889 20.701 175.396 20.701 175.776 20.701H176.537H176.917C178.691 20.701 178.691 20.701 178.691 20.701C179.578 22.9593 179.578 22.9593 179.578 22.9593C179.832 23.963 180.339 24.3394 181.479 24.3394C183.38 24.3394 183.38 24.3394 183.38 24.3394C183.38 21.4538 183.38 21.4538 183.38 21.4538H182.493ZM176.283 17.9409H176.03C174.889 17.9409 174.889 17.9409 174.889 17.9409C175.903 14.9298 175.903 14.9298 175.903 14.9298C175.903 14.5534 176.03 14.177 176.156 13.9261C176.283 14.177 176.41 14.5534 176.41 14.9298C177.424 17.9409 177.424 17.9409 177.424 17.9409H176.283Z" fill="#FF2933"/>
    <path fill-rule="evenodd" clip-rule="evenodd" d="M27.8809 10.0371C28.0076 10.0371 28.1343 10.0371 28.2611 10.288C28.2611 10.288 28.2611 10.288 34.4709 16.3102C34.8511 16.6866 34.8511 17.1884 34.4709 17.4393C34.4709 17.4393 34.4709 17.4393 28.2611 23.5869C28.1343 23.8378 28.0076 23.8378 27.8809 23.8378C27.7542 23.8378 27.7542 23.5869 27.7542 23.336V10.4135C27.7542 10.288 27.7542 10.1626 27.8809 10.0371Z" fill="#FF2933"/>
    <path fill-rule="evenodd" clip-rule="evenodd" d="M17.2355 0H17.6157L17.9959 0.125461C17.9959 0.125461 17.9959 0.125461 24.4592 6.39852C24.7126 6.77491 24.5859 7.02583 24.2057 7.02583C24.2057 7.02583 24.2057 7.02583 21.5444 7.02583C21.0374 7.02583 20.6572 7.40221 20.6572 7.7786C20.6572 7.7786 20.6572 7.7786 20.6572 12.4207C20.6572 12.9225 20.2771 13.1734 19.7701 13.1734C19.7701 13.1734 19.7701 13.1734 15.0811 13.1734C14.5741 13.1734 14.194 12.797 14.194 12.4207C14.194 12.4207 14.194 12.4207 14.194 7.7786C14.194 7.27675 13.8138 7.02583 13.3068 7.02583H10.6455C10.1385 7.15129 10.0118 6.90037 10.2653 6.52398C10.2653 6.52398 10.2653 6.52399 16.7286 0.250923C16.7286 0.125461 17.2355 0 17.2355 0Z" fill="#FF2933"/>
    <path fill-rule="evenodd" clip-rule="evenodd" d="M7.09696 9.91113C7.22369 9.91113 7.22369 10.1621 7.22369 10.413V23.5864C7.22369 23.8373 7.09696 23.9628 7.09696 23.9628C6.97023 23.9628 6.8435 23.9628 6.59003 23.8373C6.59003 23.8373 6.59003 23.8373 0.253468 17.5643C-0.126726 17.3133 -0.126726 16.8115 0.253468 16.4351C0.253468 16.4351 0.253468 16.4351 6.59003 10.1621C6.8435 9.91113 6.97023 9.91113 7.09696 9.91113Z" fill="#FF2933"/>
    <path fill-rule="evenodd" clip-rule="evenodd" d="M15.0811 20.3247C15.0811 20.3247 15.0811 20.3247 19.7701 20.3247C20.2771 20.3247 20.6572 20.7011 20.6572 21.0775C20.6572 21.0775 20.6572 21.0775 20.6572 26.0959C20.6572 26.5978 21.0374 26.9742 21.5444 26.9742H24.079C24.5859 26.9742 24.7126 27.2251 24.3325 27.476C24.3325 27.476 24.3325 27.476 18.1226 33.7491C17.9959 33.8745 17.7424 34 17.489 34C17.2355 34 16.982 33.8745 16.8553 33.7491C16.8553 33.7491 16.8553 33.7491 10.6455 27.476C10.2653 27.2251 10.5187 26.9742 10.8989 26.9742C10.8989 26.9742 10.8989 26.9742 13.5603 26.9742C14.0672 26.9742 14.4474 26.5978 14.4474 26.0959C14.4474 26.0959 14.4474 26.0959 14.4474 21.0775C14.3207 20.7011 14.7009 20.3247 15.0811 20.3247Z" fill="#FF2933"/>
  </g>
  <defs>
    <clipPath id="clip0_1_346">
      <rect width="183" height="34" fill="white"/>
    </clipPath>
  </defs>
</svg>