<svg width="164" height="30" viewBox="0 0 164 30" fill="none" xmlns="http://www.w3.org/2000/svg">
<g clip-path="url(#clip0_1_569)">
<path fill-rule="evenodd" clip-rule="evenodd" d="M37.1385 8.63428C37.1385 8.63428 37.1385 8.63428 39.7507 8.63428C40.6593 8.63428 41.2271 9.07708 41.2271 10.0734C41.2271 10.0734 41.2271 10.0734 41.2271 13.7265C41.2271 13.7265 41.2271 13.7265 46.3379 13.7265C46.3379 13.7265 46.3379 13.7265 46.3379 10.0734C46.3379 9.07708 46.7922 8.63428 47.928 8.63428C47.928 8.63428 47.928 8.63428 50.4266 8.63428C50.4266 8.63428 50.4266 8.63428 50.4266 11.0697C50.4266 11.0697 50.4266 11.0697 49.4044 11.0697L49.2909 11.1804C49.2909 11.1804 49.2909 11.1804 49.2909 21.4756C49.2909 21.4756 49.2909 21.4756 46.4515 21.4756C46.4515 21.4756 46.4515 21.4756 46.4515 16.3834C46.4515 16.3834 46.4515 16.3834 41.3407 16.3834C41.3407 16.3834 41.3407 16.3834 41.3407 21.4756C41.3407 21.4756 41.3407 21.4756 38.5014 21.4756C38.5014 21.4756 38.5014 21.4756 38.5014 11.1804C38.5014 11.1804 38.5014 11.0697 38.3878 11.0697C38.3878 11.0697 38.3878 11.0697 37.3657 11.0697C37.1385 11.0697 37.1385 11.0697 37.1385 8.63428Z" fill="#FF2933"/>
<path fill-rule="evenodd" clip-rule="evenodd" d="M59.0582 8.52379L57.6953 8.41309H57.5817C53.8338 8.41309 50.7673 11.2913 50.7673 14.9445C50.7673 18.7083 53.8338 21.6972 57.5817 21.6972H57.6953L59.0582 21.5865C62.2382 20.9223 64.5097 18.2655 64.5097 14.9445C64.6233 11.7341 62.2382 9.18799 59.0582 8.52379ZM59.1717 18.7083L57.6953 19.0404H57.5817C55.4238 19.0404 53.8338 17.2692 53.8338 14.9445C53.8338 12.7304 55.5374 11.0699 57.5817 11.0699H57.6953L59.1717 11.402C60.5346 11.9555 61.5568 13.3946 61.5568 14.9445C61.6704 16.605 60.6482 18.0441 59.1717 18.7083Z" fill="#FF2933"/>
<path fill-rule="evenodd" clip-rule="evenodd" d="M70.9834 18.9295H70.0748C69.2798 18.9295 69.2798 18.9295 69.2798 18.9295C69.1662 18.9295 69.1662 18.9295 69.1662 18.8188C69.1662 15.9405 69.1662 15.9405 69.1662 15.9405C69.7341 15.9405 70.0748 15.9405 70.4155 15.9405H70.9834C71.2105 15.9405 71.2105 15.9405 71.2105 15.9405C72.1191 15.9405 72.8006 16.4941 72.8006 17.3797C72.8006 18.2653 72.2327 18.8188 71.2105 18.8188H70.9834V18.9295ZM71.2105 21.4756C73.9363 21.4756 75.867 20.0365 75.867 17.6011C75.867 16.3834 75.1856 15.1656 74.0499 14.7228C74.6177 14.1693 75.1856 13.3944 75.1856 12.066C75.1856 9.96269 73.5956 8.63428 71.0969 8.63428H70.9834H69.0526C65.0776 8.63428 65.0776 8.63428 65.0776 8.63428C65.0776 11.0697 65.0776 11.0697 65.0776 11.0697C66.2133 11.0697 66.2133 11.0697 66.2133 11.0697V19.9258C66.2133 20.9221 66.6676 21.3649 67.5762 21.3649C69.2798 21.3649 70.1884 21.3649 70.5291 21.3649H71.2105V21.4756ZM71.0969 13.6158H69.9612C69.1662 13.6158 69.1662 13.6158 69.1662 13.6158C69.1662 10.959 69.1662 10.959 69.1662 10.959C70.0748 10.959 70.6427 10.959 70.8698 10.959H71.0969C71.892 10.959 72.3463 11.4018 72.3463 12.1767C72.3463 13.0623 71.892 13.6158 71.0969 13.6158Z" fill="#FF2933"/>
<path fill-rule="evenodd" clip-rule="evenodd" d="M88.2465 18.9295C88.0194 18.9295 88.0194 18.9295 87.9058 18.8188C84.0443 8.63428 84.0443 8.63428 84.0443 8.63428H82.5679H82.3407C81.0914 8.63428 81.0914 8.63428 81.0914 8.63428C77.4571 18.8188 77.4571 18.8188 77.4571 18.8188C77.3435 18.9295 77.3435 18.9295 77.1163 18.9295C76.5485 18.9295 76.5485 18.9295 76.5485 18.9295C76.5485 21.4756 76.5485 21.4756 76.5485 21.4756C78.3657 21.4756 78.3657 21.4756 78.3657 21.4756C79.2742 21.4756 79.7285 21.1435 80.0693 20.3686C80.8643 18.2653 80.8643 18.2653 80.8643 18.2653C81.3186 18.2653 81.7729 18.2653 82.1136 18.2653H82.795H83.1357C84.7258 18.2653 84.7258 18.2653 84.7258 18.2653C85.5208 20.2579 85.5208 20.2579 85.5208 20.2579C85.7479 21.1435 86.2022 21.4756 87.2244 21.4756C88.928 21.4756 88.928 21.4756 88.928 21.4756C88.928 18.9295 88.928 18.9295 88.928 18.9295C88.2465 18.9295 88.2465 18.9295 88.2465 18.9295ZM82.6814 15.8298H82.4543C81.4321 15.8298 81.4321 15.8298 81.4321 15.8298C82.3407 13.173 82.3407 13.173 82.3407 13.173C82.3407 12.8409 82.4543 12.5088 82.5679 12.2874C82.6814 12.5088 82.795 12.8409 82.795 13.173C83.7036 15.8298 83.7036 15.8298 83.7036 15.8298H82.6814Z" fill="#FF2933"/>
<path fill-rule="evenodd" clip-rule="evenodd" d="M94.4931 8.63428C94.4931 8.63428 94.4931 8.63428 104.828 8.63428C105.737 8.63428 106.418 9.07708 106.418 10.0734C106.418 10.0734 106.418 10.0734 106.418 18.7081C106.418 18.8188 106.418 18.8188 106.532 18.8188C106.532 18.8188 106.532 18.8188 107.44 18.8188C107.44 18.8188 107.44 18.8188 107.44 21.3649C107.44 21.3649 107.44 21.3649 104.942 21.3649C103.92 21.3649 103.352 20.9221 103.352 19.9258C103.352 19.9258 103.352 19.9258 103.352 11.1804C103.352 11.1804 103.352 11.0697 103.238 11.0697C103.238 11.0697 103.238 11.0697 98.4681 11.0697C98.4681 11.0697 98.4681 11.0697 98.4681 21.4756C98.4681 21.4756 98.4681 21.4756 95.6288 21.4756C95.6288 21.4756 95.6288 21.4756 95.6288 11.0697C95.6288 11.0697 95.6288 11.0697 94.4931 11.0697C94.4931 11.0697 94.4931 11.0697 94.4931 8.63428Z" fill="#FF2933"/>
<path fill-rule="evenodd" clip-rule="evenodd" d="M116.299 8.52379L114.936 8.41309H114.823C111.075 8.41309 108.122 11.2913 108.122 14.9445C108.122 18.7083 111.075 21.6972 114.823 21.6972H114.936L116.299 21.5865C119.479 20.9223 121.751 18.2655 121.751 14.9445C121.751 11.7341 119.479 9.18799 116.299 8.52379ZM116.413 18.7083L114.936 19.0404H114.823C112.665 19.0404 111.075 17.2692 111.075 14.9445C111.075 12.7304 112.778 11.0699 114.823 11.0699H114.936L116.413 11.402C117.776 11.9555 118.798 13.3946 118.798 14.9445C118.798 16.605 117.889 18.0441 116.413 18.7083Z" fill="#FF2933"/>
<path fill-rule="evenodd" clip-rule="evenodd" d="M122.319 8.63463C122.319 8.63463 122.319 8.63463 124.931 8.63463C125.839 8.63463 126.294 9.07743 126.294 10.0737C126.294 10.0737 126.294 10.0737 126.294 18.7084C126.294 18.8191 126.294 18.8191 126.407 18.8191C126.407 18.8191 126.407 18.8191 129.814 18.8191C129.814 18.8191 129.814 18.8191 129.814 8.52393C129.814 8.52393 129.814 8.52393 132.654 8.52393C132.654 8.52393 132.654 8.52393 132.654 18.8191C132.654 18.8191 132.654 18.8191 136.061 18.8191C136.175 18.8191 136.175 18.8191 136.175 18.7084C136.175 18.7084 136.175 18.7084 136.175 10.0737C136.175 9.07743 136.629 8.63463 137.537 8.63463C137.537 8.63463 137.537 8.63463 140.15 8.63463C140.15 8.63463 140.15 8.63463 140.15 11.0701C140.15 11.0701 140.15 11.0701 139.127 11.0701C139.014 11.0701 139.014 11.1808 139.014 11.1808C139.014 11.1808 139.014 11.1808 139.014 19.9261C139.014 20.9224 138.56 21.3653 137.651 21.3653C137.651 21.3653 137.651 21.3653 125.044 21.3653C124.022 21.3653 123.454 20.9224 123.454 19.9261C123.454 19.9261 123.454 19.9261 123.454 11.1808C123.454 11.1808 123.454 11.0701 123.341 11.0701C123.341 11.0701 123.341 11.0701 122.319 11.0701C122.319 11.0701 122.319 11.0701 122.319 8.63463Z" fill="#FF2933"/>
<path fill-rule="evenodd" clip-rule="evenodd" d="M142.535 8.63428C142.535 8.63428 142.535 8.63428 151.393 8.63428C152.416 8.63428 152.87 9.07708 152.87 9.96269C152.87 9.96269 152.87 9.96269 152.87 12.1767H150.258C150.258 12.1767 150.258 12.1767 150.258 11.1804C150.258 11.0697 150.258 11.0697 150.144 11.0697C150.144 11.0697 150.144 11.0697 148.44 11.0697C148.44 11.0697 148.44 11.0697 148.44 21.4756C148.44 21.4756 148.44 21.4756 145.601 21.4756C145.601 21.4756 145.601 21.4756 145.601 11.0697C145.601 11.0697 145.601 11.0697 143.898 11.0697C143.784 11.0697 143.784 11.0697 143.784 11.1804C143.784 11.1804 143.784 11.1804 143.784 12.1767C143.784 12.1767 143.784 12.1767 141.172 12.1767C141.172 12.1767 141.172 12.1767 141.172 9.96269C141.285 9.07708 141.626 8.63428 142.535 8.63428Z" fill="#FF2933"/>
<path fill-rule="evenodd" clip-rule="evenodd" d="M163.546 18.9295C163.319 18.9295 163.319 18.9295 163.205 18.8188C159.457 8.63428 159.457 8.63428 159.457 8.63428H158.094H157.867C156.618 8.63428 156.618 8.63428 156.618 8.63428C152.87 18.8188 152.87 18.8188 152.87 18.8188C152.756 18.9295 152.756 18.9295 152.529 18.9295C151.961 18.9295 151.961 18.9295 151.961 18.9295C151.961 21.4756 151.961 21.4756 151.961 21.4756C153.778 21.4756 153.778 21.4756 153.778 21.4756C154.687 21.4756 155.255 21.1435 155.482 20.2579C156.277 18.2653 156.277 18.2653 156.277 18.2653C156.731 18.2653 157.186 18.2653 157.526 18.2653H158.208H158.548C160.139 18.2653 160.138 18.2653 160.138 18.2653C160.934 20.2579 160.934 20.2579 160.934 20.2579C161.161 21.1435 161.615 21.4756 162.637 21.4756C164.341 21.4756 164.341 21.4756 164.341 21.4756C164.341 18.9295 164.341 18.9295 164.341 18.9295H163.546ZM157.981 15.8298H157.753C156.731 15.8298 156.731 15.8298 156.731 15.8298C157.64 13.173 157.64 13.173 157.64 13.173C157.64 12.8409 157.753 12.5088 157.867 12.2874C157.981 12.5088 158.094 12.8409 158.094 13.173C159.003 15.8298 159.003 15.8298 159.003 15.8298H157.981Z" fill="#FF2933"/>
<path fill-rule="evenodd" clip-rule="evenodd" d="M24.9861 8.85645C25.0997 8.85645 25.2133 8.85645 25.3269 9.07785C25.3269 9.07785 25.3269 9.07785 30.892 14.3915C31.2327 14.7236 31.2327 15.1664 30.892 15.3878C30.892 15.3878 30.892 15.3878 25.3269 20.8122C25.2133 21.0336 25.0997 21.0336 24.9861 21.0336C24.8726 21.0336 24.8726 20.8122 24.8726 20.5908V9.18855C24.8726 9.07785 24.8726 8.96715 24.9861 8.85645Z" fill="#FF2933"/>
<path fill-rule="evenodd" clip-rule="evenodd" d="M15.446 0H15.7867L16.1274 0.110701C16.1274 0.110701 16.1274 0.110701 21.9197 5.64576C22.1468 5.97786 22.0332 6.19926 21.6925 6.19926C21.6925 6.19926 21.6925 6.19926 19.3075 6.19926C18.8532 6.19926 18.5125 6.53136 18.5125 6.86347C18.5125 6.86347 18.5125 6.86347 18.5125 10.9594C18.5125 11.4022 18.1717 11.6236 17.7174 11.6236C17.7174 11.6236 17.7174 11.6236 13.5152 11.6236C13.0609 11.6236 12.7202 11.2915 12.7202 10.9594C12.7202 10.9594 12.7202 10.9594 12.7202 6.86347C12.7202 6.42066 12.3795 6.19926 11.9252 6.19926H9.54015C9.08586 6.30996 8.97229 6.08856 9.19943 5.75646C9.19943 5.75646 9.19943 5.75646 14.9917 0.221402C14.9917 0.110701 15.446 0 15.446 0Z" fill="#FF2933"/>
<path fill-rule="evenodd" clip-rule="evenodd" d="M6.36011 8.74512C6.47368 8.74512 6.47368 8.96652 6.47368 9.18792V20.8115C6.47368 21.0329 6.36011 21.1436 6.36011 21.1436C6.24653 21.1436 6.13296 21.1436 5.90581 21.0329C5.90581 21.0329 5.90581 21.0329 0.227144 15.4979C-0.113577 15.2765 -0.113577 14.8337 0.227144 14.5016C0.227144 14.5016 0.227143 14.5016 5.90581 8.96652C6.13296 8.74512 6.24653 8.74512 6.36011 8.74512Z" fill="#FF2933"/>
<path fill-rule="evenodd" clip-rule="evenodd" d="M13.5152 17.9336C13.5152 17.9336 13.5152 17.9336 17.7174 17.9336C18.1717 17.9336 18.5125 18.2657 18.5125 18.5978C18.5125 18.5978 18.5125 18.5978 18.5125 23.0258C18.5125 23.4686 18.8532 23.8008 19.3075 23.8008H21.5789C22.0332 23.8008 22.1468 24.0222 21.8061 24.2436C21.8061 24.2436 21.8061 24.2436 16.241 29.7786C16.1274 29.8893 15.9003 30 15.6731 30C15.446 30 15.2188 29.8893 15.1053 29.7786C15.1053 29.7786 15.1053 29.7786 9.54016 24.2436C9.19944 24.0222 9.42659 23.8008 9.76731 23.8008C9.76731 23.8008 9.7673 23.8008 12.1523 23.8008C12.6066 23.8008 12.9474 23.4686 12.9474 23.0258C12.9474 23.0258 12.9474 23.0258 12.9474 18.5978C12.8338 18.2657 13.1745 17.9336 13.5152 17.9336Z" fill="#FF2933"/>
</g>
<defs>
<clipPath id="clip0_1_569">
<rect width="164" height="30" fill="white"/>
</clipPath>
</defs>
</svg>
