<svg width="128" height="40" viewBox="0 0 128 40" fill="none" xmlns="http://www.w3.org/2000/svg">
<g clip-path="url(#clip0_1_2089)">
<path d="M19.6288 39.7633C30.4584 39.7633 39.2449 30.9241 39.2449 20.0296C39.2449 9.13508 30.4584 0.295898 19.6288 0.295898C8.79916 0.295898 0.0126343 9.13508 0.0126343 20.0296C0.0126343 30.9241 8.79916 39.7633 19.6288 39.7633Z" fill="url(#paint0_linear_1_2089)"/>
<path d="M19.6913 0.157227C8.81159 0.157227 0 9.02163 0 19.9666C0 30.9115 8.81159 39.7759 19.6913 39.7759C30.5711 39.7759 39.3827 30.9115 39.3827 19.9666C39.3827 9.02163 30.5711 0.157227 19.6913 0.157227ZM19.6913 37.5945C10.0149 37.5945 2.16843 29.701 2.16843 19.9666C2.16843 10.2321 10.0149 2.33865 19.6913 2.33865C29.3678 2.33865 37.2143 10.2321 37.2143 19.9666C37.2143 29.701 29.3678 37.5945 19.6913 37.5945Z" fill="#8DC641"/>
<path d="M26.5601 15.4654L22.1731 22.0096H26.5601V15.4654ZM28.2272 12.8174V22.0222H30.1575V23.6867H28.2272V27.129H26.5601V23.6867H20.3557V21.8961L26.6103 12.83H28.2272V12.8174ZM18.5257 25.452V27.1164H9.22522V27.066C9.31296 25.5024 9.71406 24.355 10.4912 23.4093C11.1179 22.6275 11.8825 22.0475 13.4493 21.0639C13.4493 21.0639 14.0008 20.7109 14.1637 20.61C15.0035 20.0678 15.5425 19.6391 15.9812 19.1473C16.5202 18.5168 16.7959 17.8359 16.7959 17.0289C16.7959 15.4654 15.6929 14.3936 14.1136 14.3936C12.271 14.3936 11.331 15.8058 11.2808 17.9116V17.9494H9.61378V17.9116L9.60125 17.5333C9.60125 14.7088 11.4313 12.8174 14.1888 12.8174C16.8837 12.8174 18.6385 14.4566 18.6385 16.9911C18.6385 18.2899 18.1747 19.3364 17.2848 20.2569C16.6204 20.963 15.9311 21.4296 14.3893 22.3753C14.3643 22.3879 14.3517 22.4005 14.3267 22.4131C14.2515 22.451 13.913 22.6527 13.8253 22.7158C13.0858 23.1571 12.6345 23.4723 12.2334 23.8506C11.7446 24.3171 11.4187 24.8341 11.2683 25.4394H18.5257V25.452Z" fill="white"/>
<path d="M49.5605 11.9854H56.1159C57.7454 11.9854 59.0239 12.3762 59.964 13.1454C60.904 13.9272 61.3803 15.0747 61.3803 16.613C61.3803 18.0631 60.9416 19.2105 60.0642 20.0554C59.1868 20.9002 57.9961 21.3289 56.4794 21.3289H52.2178V27.1797H49.5605V11.9854ZM52.2178 14.2046V19.1853H55.9154C57.8457 19.1853 58.7983 18.3531 58.7983 16.6887C58.7983 15.0368 57.7579 14.2172 55.6772 14.2172H52.2178V14.2046Z" fill="black"/>
<path d="M69.2519 15.9567V18.2894C68.8257 18.2516 68.5499 18.2264 68.3995 18.2264C66.2938 18.2264 65.2409 19.6008 65.2409 22.3496V27.1917H62.8468V16.171H65.1156V18.3651C65.8927 16.7259 67.121 15.9062 68.7881 15.9062L69.2519 15.9567Z" fill="black"/>
<path d="M73.2001 11.9209V14.3167H70.781V11.9209H73.2001ZM73.2001 16.1703V27.1909H70.781V16.1703H73.2001Z" fill="black"/>
<path d="M74.9174 16.1709H77.5496L80.3572 24.6444L83.0521 16.1709H85.559L81.6357 27.2167H78.9158L74.9174 16.1709Z" fill="black"/>
<path d="M86.3865 19.5761C86.6371 17.0795 88.2415 15.8438 91.1871 15.8438C92.5533 15.8438 93.6563 16.1085 94.4711 16.6508C95.2858 17.193 95.6869 18.0378 95.6869 19.1726V24.7712C95.6869 25.0864 95.7245 25.3008 95.7997 25.4143C95.8749 25.5278 96.0253 25.5908 96.2509 25.5908C96.4264 25.5908 96.6019 25.5782 96.8024 25.553V27.2679C96.1757 27.4192 95.6618 27.5074 95.2357 27.5074C94.2078 27.5074 93.6062 27.0661 93.4558 26.1835C92.5408 27.0661 91.2498 27.5074 89.6078 27.5074C88.4797 27.5074 87.5772 27.2174 86.9129 26.6248C86.2486 26.0321 85.9102 25.2377 85.9102 24.2164C85.9102 23.9012 85.9478 23.6111 86.0104 23.3463C86.0856 23.0815 86.1608 22.842 86.2611 22.6402C86.3489 22.4385 86.4993 22.2619 86.7123 22.0854C86.9129 21.9089 87.0884 21.7702 87.2263 21.6567C87.3641 21.5432 87.5772 21.4423 87.8906 21.3414C88.1914 21.2406 88.417 21.1649 88.5674 21.1145C88.7178 21.064 88.9685 21.0136 89.3445 20.9506C89.708 20.9001 89.9587 20.8497 90.0715 20.8371C90.1969 20.8119 90.4476 20.7866 90.8236 20.7362C91.6884 20.6227 92.2776 20.5218 92.5909 20.4462C92.9043 20.3705 93.1174 20.2444 93.2302 20.0931C93.3304 19.9796 93.3806 19.7148 93.3806 19.2987C93.3806 18.1891 92.6285 17.6343 91.1244 17.6343C90.3348 17.6343 89.7582 17.7856 89.3821 18.0882C89.0186 18.3908 88.7805 18.8952 88.6802 19.6013H86.3865V19.5761ZM93.343 21.6567C93.155 21.7576 92.9419 21.8458 92.7037 21.9215C92.4656 21.9971 92.265 22.0476 92.1146 22.0728C91.9642 22.098 91.7386 22.1232 91.4127 22.1737C91.0993 22.2115 90.8863 22.2493 90.786 22.2619C90.4852 22.2998 90.2595 22.3502 90.0841 22.3754C89.9086 22.4132 89.708 22.4763 89.4574 22.5519C89.2067 22.6402 89.0186 22.7411 88.8808 22.8672C88.7429 22.9933 88.6301 23.1572 88.5298 23.3589C88.4295 23.5607 88.3794 23.8129 88.3794 24.0903C88.3794 24.6199 88.5549 25.0234 88.8933 25.3008C89.2443 25.5908 89.7206 25.7295 90.3473 25.7295C91.4252 25.7295 92.2525 25.4395 92.8291 24.8595C93.155 24.5316 93.3179 23.9012 93.3179 22.9554V21.6567H93.343Z" fill="black"/>
<path d="M103.746 16.1708V17.9487H101.54V23.7616C101.54 24.1021 101.553 24.3417 101.565 24.4804C101.578 24.6191 101.615 24.7704 101.691 24.9343C101.766 25.0982 101.891 25.2117 102.067 25.2621C102.242 25.3252 102.493 25.3504 102.794 25.3504C103.195 25.3504 103.508 25.3378 103.746 25.3126V27.2292C103.27 27.2796 102.718 27.3175 102.117 27.3175C101.691 27.3175 101.315 27.2796 101.001 27.2166C100.688 27.1535 100.412 27.0779 100.199 26.9896C99.9859 26.9014 99.8104 26.7627 99.6725 26.5483C99.5347 26.3339 99.4219 26.17 99.3466 26.0313C99.2714 25.8926 99.2088 25.653 99.1712 25.3126C99.1336 24.9721 99.121 24.7073 99.121 24.5308C99.121 24.3543 99.121 24.039 99.121 23.5977C99.121 23.5473 99.121 23.4968 99.121 23.459C99.121 23.4212 99.121 23.3833 99.121 23.3329C99.121 23.2825 99.121 23.232 99.121 23.1942V17.9361H97.291V16.1708H99.121V12.8545H101.54V16.1708H103.746Z" fill="black"/>
<path d="M116.468 25.0348V27.191H106.328C106.341 26.5227 106.429 25.9049 106.604 25.35C106.779 24.7952 106.967 24.3161 107.193 23.9252C107.406 23.5343 107.732 23.1308 108.171 22.7273C108.597 22.3238 108.986 21.9833 109.336 21.7185C109.687 21.4537 110.164 21.1133 110.765 20.7098C110.803 20.6846 111.016 20.5459 111.392 20.2937C111.768 20.0415 111.994 19.8902 112.081 19.8271C112.169 19.7641 112.357 19.6128 112.658 19.3732C112.959 19.1336 113.147 18.9445 113.247 18.8058C113.335 18.6671 113.46 18.4653 113.623 18.2257C113.786 17.9862 113.899 17.734 113.949 17.4944C113.999 17.2422 114.037 16.9774 114.037 16.7C114.037 15.9182 113.824 15.3004 113.385 14.859C112.959 14.4051 112.37 14.1907 111.63 14.1907C111.204 14.1907 110.841 14.2538 110.527 14.3925C110.214 14.5312 109.976 14.7077 109.8 14.9095C109.625 15.1238 109.474 15.4012 109.362 15.7291C109.249 16.0695 109.174 16.3848 109.136 16.6748C109.098 16.9774 109.073 17.3179 109.061 17.7214H106.704V17.3431C106.704 15.7291 107.156 14.4555 108.058 13.5098C108.96 12.5641 110.176 12.085 111.693 12.085C113.134 12.085 114.3 12.4885 115.177 13.3081C116.055 14.1277 116.494 15.2121 116.494 16.5613C116.494 17.1035 116.406 17.6205 116.243 18.0996C116.067 18.5788 115.892 18.9697 115.704 19.2723C115.516 19.5749 115.177 19.9154 114.714 20.3189C114.25 20.7224 113.899 20.9998 113.673 21.1511C113.448 21.3024 113.034 21.5924 112.42 22.0086C110.653 23.156 109.587 24.1648 109.236 25.0222H116.468V25.0348Z" fill="black"/>
<path d="M128 21.5937V23.649H126.107V27.1922H123.776L123.751 23.649H117.446V21.2406L123.814 12.124H126.107V21.5937H128ZM123.788 21.5937V15.1251L119.439 21.5937H123.788Z" fill="black"/>
</g>
<defs>
<linearGradient id="paint0_linear_1_2089" x1="0.012093" y1="20.029" x2="39.2444" y2="20.029" gradientUnits="userSpaceOnUse">
<stop stop-color="#333333"/>
<stop offset="1"/>
</linearGradient>
<clipPath id="clip0_1_2089">
<rect width="128" height="40" fill="white"/>
</clipPath>
</defs>
</svg>
