<svg width="84" height="26" viewBox="0 0 84 26" fill="none" xmlns="http://www.w3.org/2000/svg">
<g clip-path="url(#clip0_1_2492)">
<path d="M12.8814 25.8462C19.9883 25.8462 25.7545 20.1007 25.7545 13.0193C25.7545 5.93785 19.9883 0.192383 12.8814 0.192383C5.77446 0.192383 0.00830078 5.93785 0.00830078 13.0193C0.00830078 20.1007 5.77446 25.8462 12.8814 25.8462Z" fill="url(#paint0_linear_1_2492)"/>
<path d="M12.9224 0.102295C5.78261 0.102295 0 5.86416 0 12.9784C0 20.0926 5.78261 25.8545 12.9224 25.8545C20.0623 25.8545 25.8449 20.0926 25.8449 12.9784C25.8449 5.86416 20.0623 0.102295 12.9224 0.102295ZM12.9224 24.4365C6.57227 24.4365 1.42303 19.3058 1.42303 12.9784C1.42303 6.65098 6.57227 1.52022 12.9224 1.52022C19.2726 1.52022 24.4219 6.65098 24.4219 12.9784C24.4219 19.3058 19.2726 24.4365 12.9224 24.4365Z" fill="#8DC641"/>
<path d="M17.4301 10.0525L14.5511 14.3063H17.4301V10.0525ZM18.5241 8.3313V14.3145H19.7909V15.3963H18.5241V17.6339H17.4301V15.3963H13.3584V14.2325L17.463 8.33949H18.5241V8.3313ZM12.1575 16.5438V17.6257H6.05408V17.5929C6.11166 16.5766 6.37488 15.8307 6.88486 15.216C7.29615 14.7079 7.79791 14.3308 8.82611 13.6916C8.82611 13.6916 9.18804 13.4621 9.29497 13.3965C9.84609 13.0441 10.1998 12.7654 10.4877 12.4457C10.8414 12.0359 11.0224 11.5933 11.0224 11.0688C11.0224 10.0525 10.2985 9.35581 9.26207 9.35581C8.0529 9.35581 7.43598 10.2738 7.40308 11.6425V11.6671H6.30907V11.6425L6.30085 11.3966C6.30085 9.56071 7.50179 8.3313 9.31142 8.3313C11.0799 8.3313 12.2315 9.39679 12.2315 11.0442C12.2315 11.8884 11.9272 12.5687 11.3431 13.167C10.9072 13.626 10.4548 13.9292 9.44303 14.5439C9.42658 14.5521 9.41836 14.5603 9.4019 14.5685C9.35255 14.5931 9.13046 14.7243 9.07288 14.7652C8.58757 15.0521 8.29145 15.257 8.02823 15.5029C7.70743 15.8061 7.49356 16.1422 7.39485 16.5356H12.1575V16.5438Z" fill="white"/>
<path d="M32.5241 7.79053H36.8261C37.8954 7.79053 38.7344 8.04461 39.3514 8.54457C39.9683 9.05273 40.2809 9.79857 40.2809 10.7985C40.2809 11.741 39.993 12.4869 39.4172 13.036C38.8414 13.5852 38.0599 13.8638 37.0647 13.8638H34.2679V17.6668H32.5241V7.79053ZM34.2679 9.23304V12.4705H36.6945C37.9612 12.4705 38.5864 11.9296 38.5864 10.8477C38.5864 9.77398 37.9037 9.24124 36.5382 9.24124H34.2679V9.23304Z" fill="black"/>
<path d="M45.4466 10.3719V11.8882C45.1669 11.8636 44.9859 11.8472 44.8872 11.8472C43.5053 11.8472 42.8144 12.7406 42.8144 14.5273V17.6746H41.2433V10.5112H42.7321V11.9374C43.2421 10.8719 44.0482 10.3391 45.1422 10.3391L45.4466 10.3719Z" fill="black"/>
<path d="M48.0376 7.74878V9.30604H46.4501V7.74878H48.0376ZM48.0376 10.5109V17.6743H46.4501V10.5109H48.0376Z" fill="black"/>
<path d="M49.1646 10.5112H50.8919L52.7345 16.019L54.503 10.5112H56.1481L53.5735 17.691H51.7885L49.1646 10.5112Z" fill="black"/>
<path d="M56.6911 12.7246C56.8556 11.1018 57.9085 10.2986 59.8415 10.2986C60.7381 10.2986 61.462 10.4707 61.9966 10.8231C62.5313 11.1756 62.7945 11.7247 62.7945 12.4624V16.1014C62.7945 16.3063 62.8192 16.4457 62.8685 16.5194C62.9179 16.5932 63.0166 16.6342 63.1647 16.6342C63.2798 16.6342 63.395 16.626 63.5266 16.6096V17.7243C63.1153 17.8226 62.7781 17.88 62.4984 17.88C61.8239 17.88 61.4291 17.5931 61.3304 17.0194C60.7299 17.5931 59.8827 17.88 58.8051 17.88C58.0648 17.88 57.4725 17.6915 57.0366 17.3063C56.6006 16.921 56.3785 16.4047 56.3785 15.7408C56.3785 15.5359 56.4032 15.3474 56.4443 15.1753C56.4937 15.0031 56.5431 14.8474 56.6089 14.7163C56.6664 14.5851 56.7651 14.4704 56.905 14.3557C57.0366 14.2409 57.1517 14.1508 57.2422 14.077C57.3327 14.0032 57.4725 13.9377 57.6782 13.8721C57.8756 13.8065 58.0237 13.7573 58.1224 13.7246C58.2211 13.6918 58.3856 13.659 58.6324 13.618C58.8709 13.5852 59.0354 13.5524 59.1094 13.5442C59.1917 13.5278 59.3562 13.5115 59.603 13.4787C60.1705 13.4049 60.5572 13.3393 60.7628 13.2902C60.9684 13.241 61.1083 13.159 61.1823 13.0607C61.2481 12.9869 61.281 12.8148 61.281 12.5443C61.281 11.8231 60.7875 11.4624 59.8004 11.4624C59.2822 11.4624 58.9038 11.5608 58.657 11.7575C58.4185 11.9542 58.2622 12.282 58.1964 12.741H56.6911V12.7246ZM61.2563 14.077C61.1329 14.1426 60.9931 14.1999 60.8368 14.2491C60.6805 14.2983 60.5489 14.3311 60.4502 14.3475C60.3515 14.3639 60.2034 14.3802 59.9896 14.413C59.7839 14.4376 59.6441 14.4622 59.5783 14.4704C59.3809 14.495 59.2328 14.5278 59.1177 14.5442C59.0025 14.5688 58.8709 14.6097 58.7064 14.6589C58.5419 14.7163 58.4185 14.7819 58.328 14.8638C58.2375 14.9458 58.1635 15.0523 58.0977 15.1835C58.0319 15.3146 57.999 15.4785 57.999 15.6588C57.999 16.0031 58.1141 16.2653 58.3362 16.4457C58.5666 16.6342 58.8791 16.7243 59.2904 16.7243C59.9978 16.7243 60.5407 16.5358 60.9191 16.1588C61.1329 15.9457 61.2399 15.5359 61.2399 14.9212V14.077H61.2563Z" fill="black"/>
<path d="M68.0835 10.5113V11.6669H66.6358V15.4453C66.6358 15.6666 66.644 15.8224 66.6522 15.9125C66.6604 16.0027 66.6851 16.101 66.7345 16.2076C66.7838 16.3141 66.8661 16.3879 66.9812 16.4207C67.0964 16.4617 67.2609 16.4781 67.4583 16.4781C67.7216 16.4781 67.9272 16.4699 68.0835 16.4535V17.6993C67.7709 17.7321 67.409 17.7566 67.0142 17.7566C66.7345 17.7566 66.4877 17.7321 66.2821 17.6911C66.0764 17.6501 65.8955 17.6009 65.7556 17.5435C65.6158 17.4862 65.5006 17.396 65.4102 17.2567C65.3197 17.1173 65.2456 17.0108 65.1963 16.9206C65.1469 16.8305 65.1058 16.6748 65.0811 16.4535C65.0565 16.2322 65.0482 16.0601 65.0482 15.9453C65.0482 15.8306 65.0482 15.6257 65.0482 15.3388C65.0482 15.306 65.0482 15.2732 65.0482 15.2486C65.0482 15.224 65.0482 15.1995 65.0482 15.1667C65.0482 15.1339 65.0482 15.1011 65.0482 15.0765V11.6587H63.8473V10.5113H65.0482V8.35571H66.6358V10.5113H68.0835Z" fill="black"/>
<path d="M76.4325 16.2726V17.6742H69.778C69.7862 17.2398 69.8438 16.8382 69.9589 16.4775C70.0741 16.1169 70.1975 15.8054 70.3455 15.5514C70.4854 15.2973 70.6992 15.035 70.9871 14.7727C71.2668 14.5105 71.5218 14.2892 71.7521 14.117C71.9824 13.9449 72.295 13.7236 72.6898 13.4614C72.7145 13.445 72.8543 13.3548 73.1011 13.1909C73.3479 13.027 73.4959 12.9286 73.5535 12.8876C73.6111 12.8467 73.7345 12.7483 73.9319 12.5926C74.1293 12.4368 74.2527 12.3139 74.3185 12.2237C74.3761 12.1336 74.4583 12.0025 74.5653 11.8467C74.6722 11.691 74.7462 11.5271 74.7791 11.3714C74.812 11.2074 74.8367 11.0353 74.8367 10.855C74.8367 10.3468 74.6969 9.94523 74.409 9.65837C74.1293 9.36331 73.7427 9.22397 73.2574 9.22397C72.9777 9.22397 72.7392 9.26496 72.5335 9.35511C72.3279 9.44527 72.1716 9.56001 72.0565 9.69115C71.9413 9.83049 71.8426 10.0108 71.7686 10.2239C71.6945 10.4452 71.6452 10.6501 71.6205 10.8386C71.5958 11.0353 71.5794 11.2566 71.5711 11.5189H70.0247V11.273C70.0247 10.2239 70.3208 9.39609 70.9131 8.78138C71.5053 8.16668 72.3032 7.85522 73.2985 7.85522C74.2445 7.85522 75.0094 8.1175 75.5852 8.65025C76.161 9.18299 76.4489 9.88786 76.4489 10.7648C76.4489 11.1173 76.3914 11.4533 76.2844 11.7648C76.1693 12.0762 76.0541 12.3303 75.9307 12.527C75.8073 12.7237 75.5852 12.945 75.2809 13.2073C74.9765 13.4696 74.7462 13.6499 74.5982 13.7482C74.4501 13.8466 74.1787 14.0351 73.7756 14.3056C72.6158 15.0514 71.9166 15.7071 71.6863 16.2644H76.4325V16.2726Z" fill="black"/>
<path d="M83.9999 14.0359V15.3719H82.7579V17.675H81.2279L81.2115 15.3719H77.074V13.8064L81.2526 7.88062H82.7579V14.0359H83.9999ZM81.2361 14.0359V9.83129L78.3818 14.0359H81.2361Z" fill="black"/>
</g>
<defs>
<linearGradient id="paint0_linear_1_2492" x1="0.00794555" y1="13.0189" x2="25.7541" y2="13.0189" gradientUnits="userSpaceOnUse">
<stop stop-color="#333333"/>
<stop offset="1"/>
</linearGradient>
<clipPath id="clip0_1_2492">
<rect width="84" height="26" fill="white"/>
</clipPath>
</defs>
</svg>
