<svg width="288" height="77" viewBox="0 0 288 77" fill="none" xmlns="http://www.w3.org/2000/svg">
<path d="M50.6281 44.2158L25.1246 38.4451C17.5249 36.7302 12.7547 29.1694 14.47 21.5712C16.1852 13.9729 23.7474 9.20364 31.3471 10.9186C38.9468 12.6335 43.717 20.1942 42.0017 27.7925C41.1378 31.5979 38.8216 34.6898 35.7542 36.6175C35.7542 36.6175 35.7417 36.6175 35.7417 36.63C35.654 36.6926 35.5914 36.8053 35.5914 36.9179C35.5914 37.0807 35.7041 37.2184 35.8543 37.2559L47.1976 39.822C47.473 39.8846 47.7485 39.7845 47.9112 39.5592C51.0413 35.4283 52.9193 30.271 52.9193 24.6881C52.9193 11.5445 42.6528 0.804222 29.6944 0.0406418C29.5818 0.0281219 28.8806 0.0030899 28.6428 0.0030899C22.9085 -0.0845337 17.0992 1.55529 12.0411 5.09781C-0.729459 14.0355 -3.83445 31.6354 5.10492 44.391L27.8164 76.787C27.9166 76.9246 28.0668 76.9998 28.2421 76.9998C28.4174 76.9998 28.5802 76.9121 28.6678 76.7744C28.6678 76.7744 50.9411 45.0044 50.9536 45.0044C51.0162 44.9168 51.0413 44.8166 51.0413 44.704C51.0413 44.4786 50.866 44.2658 50.6281 44.2158Z" fill="#FABC26"/>
<path d="M72.4632 15.1744C72.7386 15.1744 72.9139 15.262 73.0015 15.4498L80.5637 28.3556H80.9268L87.3621 15.625C87.4998 15.3121 87.7753 15.1744 88.1384 15.1744H92.7583C93.1715 15.1744 93.3968 15.5875 93.209 15.9004L79.8876 39.4463C79.7499 39.7217 79.4744 39.8594 79.1239 39.8594H74.5916C74.0908 39.8594 74.0532 39.5464 74.2285 39.1834L77.8093 33.0748L67.1171 15.7752C66.9293 15.4623 67.067 15.1869 67.3925 15.1869L72.4632 15.1744Z" fill="#222222"/>
<path d="M101.159 15.1744C101.572 15.1744 101.798 15.3997 101.798 15.8128V25.5015L111.989 15.5374C112.265 15.3121 112.665 15.1744 113.166 15.1744H118.687C119.101 15.1744 119.226 15.5374 118.913 15.8503L108.083 25.9897L119.589 39.1709C119.902 39.4838 119.727 39.8469 119.314 39.8469H113.88C113.379 39.8469 113.016 39.7092 112.74 39.3962L104.114 29.2318L101.773 31.4099V39.221C101.773 39.6341 101.547 39.8594 101.134 39.8594H97.1779C96.7648 39.8594 96.5394 39.6341 96.5394 39.221V15.8003C96.5394 15.3872 96.7648 15.1619 97.1779 15.1619H101.159" fill="#222222"/>
<path d="M134.626 28.3055C137.393 28.3055 138.97 26.5906 138.97 24.1872C138.97 21.8338 137.38 20.1564 134.626 20.1564H128.053V28.3055H134.626ZM134.626 15.1744C140.109 15.1744 144.229 19.1175 144.229 24.1872C144.229 29.4446 140.109 33.2876 134.626 33.2876H128.053V39.221C128.053 39.6341 127.827 39.8594 127.414 39.8594H123.433C123.019 39.8594 122.794 39.6341 122.794 39.221V15.8003C122.794 15.3872 123.019 15.1619 123.433 15.1619H134.626" fill="#222222"/>
<path d="M168.981 15.1744C169.394 15.1744 169.619 15.3997 169.619 15.8128V39.221C169.619 39.6341 169.394 39.8594 168.981 39.8594H164.999C164.599 39.8594 164.361 39.6341 164.361 39.221V20.1064H153.393V39.221C153.393 39.6341 153.168 39.8594 152.755 39.8594H148.773C148.36 39.8594 148.135 39.6341 148.135 39.221V15.8003C148.135 15.3872 148.36 15.1619 148.773 15.1619H168.981" fill="#222222"/>
<path d="M179.598 27.5287C179.598 32.01 182.765 35.2772 187.298 35.2772C191.78 35.2772 194.96 32.0226 194.96 27.5287C194.96 22.9597 191.792 19.7426 187.298 19.7426C182.765 19.7426 179.598 22.9597 179.598 27.5287ZM187.298 14.8107C194.409 14.8107 200.256 20.2934 200.256 27.5412C200.256 34.839 194.409 40.2217 187.298 40.2217C180.136 40.2217 174.302 34.8265 174.302 27.5412C174.289 20.2809 180.136 14.8107 187.298 14.8107Z" fill="#222222"/>
<path d="M217.834 34.9149V15.8003C217.834 15.3872 218.06 15.1619 218.473 15.1619H222.367C222.78 15.1619 223.005 15.3872 223.005 15.8003V34.9149H230.755V15.8003C230.755 15.3872 230.98 15.1619 231.394 15.1619H235.287C235.701 15.1619 235.926 15.3872 235.926 15.8003V39.221C235.926 39.6341 235.701 39.8594 235.287 39.8594H205.577C205.264 39.8594 204.939 39.6341 204.939 39.221V15.8003C204.939 15.3872 205.164 15.1619 205.577 15.1619H209.471C209.884 15.1619 210.109 15.3872 210.109 15.8003V34.9149H217.834Z" fill="#222222"/>
<path d="M261.091 15.1744C261.492 15.1744 261.73 15.3997 261.73 15.8128V19.5306C261.73 19.9436 261.505 20.169 261.091 20.169H253.204V39.221C253.204 39.6341 252.978 39.8594 252.565 39.8594H248.584C248.171 39.8594 247.945 39.6341 247.945 39.221V20.1564H240.058C239.644 20.1564 239.419 19.9311 239.419 19.518V15.8003C239.419 15.3872 239.644 15.1619 240.058 15.1619H261.091" fill="#222222"/>
<path d="M270.056 30.208H278.657L274.676 20.0686H274.175L270.056 30.208ZM280.473 34.9648H268.153L266.437 39.3084C266.3 39.6714 266.024 39.8467 265.674 39.8467H261.192C260.741 39.8467 260.603 39.6214 260.741 39.2083L271.433 15.5247C271.521 15.2994 271.708 15.1617 272.021 15.1617H277.18C277.493 15.1617 277.681 15.2994 277.768 15.5247L287.96 39.1206C288.097 39.4837 287.872 39.8467 287.459 39.8467H283.152C282.701 39.8467 282.376 39.6214 282.2 39.2083L280.473 34.9648Z" fill="#222222"/>
<path d="M70.6102 61.0146V50.4497H77.5714V51.6639H72.0125V61.0146H70.6102Z" fill="#4A4A4A"/>
<path d="M80.9894 55.7193C80.9894 58.3605 82.4292 60.0755 84.6703 60.0755C86.8864 60.0755 88.3262 58.348 88.3262 55.7193C88.3262 53.1031 86.8864 51.4132 84.6453 51.4132C82.1412 51.4132 80.9894 53.4536 80.9894 55.7193ZM89.7284 55.6442C89.7284 58.7486 88.0132 61.2646 84.6578 61.2646C81.2648 61.2646 79.5871 58.686 79.5871 55.6066C79.5871 52.3145 81.5653 50.1864 84.6453 50.1864C87.9255 50.199 89.7284 52.4897 89.7284 55.6442Z" fill="#4A4A4A"/>
<path d="M100.659 61.0149H99.2563V51.6642H95.35L95.1371 57.6226C95.062 59.7506 94.2858 61.2402 92.6832 61.2402C92.3827 61.2402 91.9445 61.1401 91.6691 61.0274V59.8382C91.8569 59.9634 92.27 59.9885 92.4328 59.9885C93.1965 59.9885 93.7474 59.5754 93.81 56.8841L93.9978 50.4374H100.646L100.659 61.0149Z" fill="#4A4A4A"/>
<path d="M105.354 55.7193C105.354 58.3605 106.793 60.0755 109.034 60.0755C111.251 60.0755 112.69 58.348 112.69 55.7193C112.69 53.1031 111.251 51.4132 109.009 51.4132C106.518 51.4132 105.354 53.4536 105.354 55.7193ZM114.093 55.6442C114.093 58.7486 112.39 61.2646 109.022 61.2646C105.629 61.2646 103.951 58.686 103.951 55.6066C103.951 52.3145 105.929 50.1864 109.009 50.1864C112.29 50.199 114.093 52.4897 114.093 55.6442Z" fill="#4A4A4A"/>
<path d="M118.75 59.838H121.542C122.957 59.838 124.334 59.7504 124.334 57.8977C124.334 56.0576 122.719 56.0701 121.304 56.0701H118.75V59.838ZM118.75 54.9686H121.267C122.456 54.9686 123.883 54.881 123.883 53.2912C123.883 51.7014 122.644 51.6263 121.404 51.6263H118.763C118.75 51.6389 118.75 54.9686 118.75 54.9686ZM121.905 50.4497C123.658 50.4497 125.273 51.1507 125.273 53.0909C125.273 54.1299 124.66 55.0186 123.708 55.3566C125.01 55.6571 125.749 56.6334 125.749 58.0354C125.749 60.4639 123.758 61.0146 121.742 61.0146H117.385V50.4497H121.905Z" fill="#4A4A4A"/>
<path d="M137.468 61.0146H136.065V56.0701H130.481V61.0146H129.079V50.4497H130.481V54.8559H136.065V50.4497H137.468V61.0146Z" fill="#4A4A4A"/>
<path d="M145.268 51.7766L143.44 56.6585H147.071L145.268 51.7766ZM150.226 61.0146H148.661L147.484 57.7726H143.039L141.837 61.0146H140.347L144.504 50.4497H146.081L150.226 61.0146Z" fill="#4A4A4A"/>
<path d="M167.441 61.0146H166.039V51.6639H160.455V61.0146H159.052V50.4497H167.428L167.441 61.0146Z" fill="#4A4A4A"/>
<path d="M172.148 55.7193C172.148 58.3605 173.588 60.0755 175.829 60.0755C178.045 60.0755 179.485 58.348 179.485 55.7193C179.485 53.1031 178.045 51.4132 175.804 51.4132C173.313 51.4132 172.148 53.4536 172.148 55.7193ZM180.887 55.6442C180.887 58.7486 179.172 61.2646 175.817 61.2646C172.424 61.2646 170.746 58.686 170.746 55.6066C170.746 52.3145 172.724 50.1864 175.804 50.1864C179.097 50.199 180.887 52.4897 180.887 55.6442Z" fill="#4A4A4A"/>
<path d="M184.18 50.4497H185.582V59.8004H190.278V50.4497H191.68V59.8004H196.375V50.4497H197.777V61.0146H184.193L184.18 50.4497Z" fill="#4A4A4A"/>
<path d="M209.233 51.6639H205.677V61.0146H204.275V51.6639H200.719V50.4497H209.221V51.6639" fill="#4A4A4A"/>
<path d="M214.642 51.7766L212.814 56.6585H216.445L214.642 51.7766ZM219.6 61.0146H218.035L216.858 57.7726H212.413L211.211 61.0146H209.734L213.891 50.4497H215.468L219.6 61.0146Z" fill="#4A4A4A"/>
<path d="M232.571 54.6932L237.203 61.0146H235.425L231.594 55.6445L229.841 57.3094V61.0146H228.439V50.4497H229.841V55.6946L235.2 50.4497H237.028L232.571 54.6932Z" fill="#4A4A4A"/>
<path d="M241.56 55.5068H244.252C245.604 55.5068 246.643 55.1313 246.643 53.5791C246.643 51.8892 245.441 51.6514 244.051 51.6514H241.56V55.5068ZM244.515 50.4497C246.543 50.4497 248.033 51.3009 248.033 53.4915C248.033 55.8824 246.493 56.6835 244.427 56.6835H241.56V61.0146H240.158V50.4497H244.515Z" fill="#4A4A4A"/>
<path d="M254.218 51.7766L252.39 56.6585H256.021L254.218 51.7766ZM259.163 61.0146H257.598L256.421 57.7726H251.977L250.775 61.0146H249.297L253.454 50.4497H255.032L259.163 61.0146Z" fill="#4A4A4A"/>
<path d="M264.847 49.5359H263.508V48.0337H264.847V49.5359ZM263.47 61.0146H262.068V50.4497H263.47V61.0146ZM262.043 49.5359H260.703V48.0337H262.043V49.5359Z" fill="#4A4A4A"/>
<path d="M275.715 61.0146H274.325V56.0701H268.741V61.0146H267.339V50.4497H268.741V54.8559H274.325V50.4497H275.715V61.0146Z" fill="#4A4A4A"/>
<path d="M279.559 50.4497H280.961V59.3999H280.986L286.169 50.4497H287.935V61.0146H286.545V52.0269H286.52L281.311 61.0146H279.559V50.4497Z" fill="#4A4A4A"/>
</svg>
