<svg xmlns="http://www.w3.org/2000/svg" width="183" height="49" viewBox="0 0 183 49" fill="none">
  <path d="M32.1699 28.1377L15.9646 24.4655C11.1356 23.3741 8.10456 18.5628 9.19446 13.7275C10.2844 8.89225 15.0895 5.85726 19.9185 6.94858C24.7475 8.0399 27.7785 12.8513 26.6886 17.6865C26.1397 20.1081 24.6679 22.0757 22.7188 23.3024C22.7188 23.3024 22.7108 23.3024 22.7108 23.3104C22.6552 23.3502 22.6154 23.4219 22.6154 23.4936C22.6154 23.5972 22.687 23.6848 22.7824 23.7087L29.9901 25.3417C30.1651 25.3815 30.3402 25.3178 30.4436 25.1744C32.4325 22.5457 33.6258 19.2638 33.6258 15.711C33.6258 7.34687 27.1023 0.51218 18.8683 0.0262642C18.7967 0.0182953 18.3512 0.00236511 18.2001 0.00236511C14.5565 -0.0533943 10.8651 0.990131 7.65109 3.24446C-0.46351 8.93207 -2.43647 20.132 3.24375 28.2492L17.675 48.8648C17.7387 48.9524 17.8341 49.0002 17.9455 49.0002C18.0569 49.0002 18.1603 48.9445 18.216 48.8569C18.216 48.8569 32.3688 28.6396 32.3768 28.6396C32.4165 28.5838 32.4325 28.5201 32.4325 28.4484C32.4325 28.305 32.3211 28.1696 32.1699 28.1377Z" fill="#FABC26"/>
  <path d="M46.0443 9.65684C46.2194 9.65684 46.3307 9.71261 46.3864 9.83209L51.1915 18.0449H51.4222L55.5114 9.94361C55.5989 9.74447 55.7739 9.65684 56.0046 9.65684H58.9402C59.2027 9.65684 59.3459 9.91971 59.2266 10.1189L50.7619 25.1026C50.6744 25.2779 50.4994 25.3655 50.2767 25.3655H47.3968C47.0785 25.3655 47.0547 25.1663 47.1661 24.9353L49.4413 21.048L42.6473 10.0392C42.528 9.84006 42.6155 9.66481 42.8224 9.66481L46.0443 9.65684Z" fill="#222222"/>
  <path d="M64.2783 9.65684C64.5409 9.65684 64.6841 9.80023 64.6841 10.0631V16.2287L71.1599 9.88785C71.3349 9.74447 71.5895 9.65684 71.9077 9.65684H75.416C75.6786 9.65684 75.7581 9.88785 75.5592 10.087L68.6777 16.5393L75.9888 24.9274C76.1877 25.1265 76.0763 25.3575 75.8138 25.3575H72.3611C72.0429 25.3575 71.8122 25.2699 71.6372 25.0707L66.1558 18.6025L64.6682 19.9885V24.9592C64.6682 25.2221 64.525 25.3655 64.2624 25.3655H61.7485C61.486 25.3655 61.3428 25.2221 61.3428 24.9592V10.0551C61.3428 9.79226 61.486 9.64888 61.7485 9.64888H64.2783" fill="#222222"/>
  <path d="M85.5433 18.013C87.3015 18.013 88.3039 16.9217 88.3039 15.3922C88.3039 13.8947 87.2935 12.8272 85.5433 12.8272H81.3667V18.013H85.5433ZM85.5433 9.65684C89.0278 9.65684 91.6452 12.1661 91.6452 15.3922C91.6452 18.7379 89.0278 21.1834 85.5433 21.1834H81.3667V24.9592C81.3667 25.2221 81.2235 25.3655 80.961 25.3655H78.4311C78.1686 25.3655 78.0254 25.2221 78.0254 24.9592V10.0551C78.0254 9.79226 78.1686 9.64888 78.4311 9.64888H85.5433" fill="#222222"/>
  <path d="M107.373 9.65684C107.636 9.65684 107.779 9.80023 107.779 10.0631V24.9592C107.779 25.2221 107.636 25.3655 107.373 25.3655H104.843C104.589 25.3655 104.438 25.2221 104.438 24.9592V12.7954H97.4686V24.9592C97.4686 25.2221 97.3254 25.3655 97.0629 25.3655H94.533C94.2705 25.3655 94.1273 25.2221 94.1273 24.9592V10.0551C94.1273 9.79226 94.2705 9.64888 94.533 9.64888H107.373" fill="#222222"/>
  <path d="M114.119 17.5183C114.119 20.3701 116.132 22.4492 119.012 22.4492C121.86 22.4492 123.881 20.3781 123.881 17.5183C123.881 14.6108 121.868 12.5636 119.012 12.5636C116.132 12.5636 114.119 14.6108 114.119 17.5183ZM119.012 9.42505C123.531 9.42505 127.246 12.9141 127.246 17.5263C127.246 22.1704 123.531 25.5957 119.012 25.5957C114.462 25.5957 110.754 22.1624 110.754 17.5263C110.746 12.9061 114.462 9.42505 119.012 9.42505Z" fill="#222222"/>
  <path d="M138.416 22.219V10.0551C138.416 9.79226 138.559 9.64888 138.821 9.64888H141.295C141.558 9.64888 141.701 9.79226 141.701 10.0551V22.219H146.626V10.0551C146.626 9.79226 146.769 9.64888 147.031 9.64888H149.505C149.768 9.64888 149.911 9.79226 149.911 10.0551V24.9592C149.911 25.2221 149.768 25.3655 149.505 25.3655H130.627C130.428 25.3655 130.221 25.2221 130.221 24.9592V10.0551C130.221 9.79226 130.365 9.64888 130.627 9.64888H133.101C133.364 9.64888 133.507 9.79226 133.507 10.0551V22.219H138.416Z" fill="#222222"/>
  <path d="M165.902 9.65684C166.156 9.65684 166.307 9.80023 166.307 10.0631V12.429C166.307 12.6918 166.164 12.8352 165.902 12.8352H160.89V24.9592C160.89 25.2221 160.747 25.3655 160.484 25.3655H157.954C157.692 25.3655 157.548 25.2221 157.548 24.9592V12.8272H152.537C152.274 12.8272 152.131 12.6839 152.131 12.421V10.0551C152.131 9.79226 152.274 9.64888 152.537 9.64888H165.902" fill="#222222"/>
  <path d="M171.598 19.2235H177.063L174.534 12.7712H174.215L171.598 19.2235ZM178.217 22.2505H170.389L169.299 25.0146C169.211 25.2457 169.036 25.3572 168.814 25.3572H165.965C165.679 25.3572 165.592 25.2138 165.679 24.9509L172.473 9.87955C172.529 9.73617 172.648 9.64854 172.847 9.64854H176.125C176.324 9.64854 176.443 9.73617 176.499 9.87955L182.974 24.8952C183.062 25.1262 182.919 25.3572 182.656 25.3572H179.919C179.633 25.3572 179.426 25.2138 179.315 24.9509L178.217 22.2505Z" fill="#222222"/>
  <path d="M44.8669 38.8279V32.1047H49.2902V32.8774H45.758V38.8279H44.8669Z" fill="#4A4A4A"/>
  <path d="M51.4621 35.4579C51.4621 37.1387 52.3769 38.2301 53.801 38.2301C55.2091 38.2301 56.124 37.1308 56.124 35.4579C56.124 33.7931 55.2091 32.7177 53.7851 32.7177C52.194 32.7177 51.4621 34.0161 51.4621 35.4579ZM57.015 35.4102C57.015 37.3857 55.9251 38.9868 53.793 38.9868C51.6371 38.9868 50.571 37.3459 50.571 35.3863C50.571 33.2912 51.828 31.937 53.7851 31.937C55.8694 31.945 57.015 33.4028 57.015 35.4102Z" fill="#4A4A4A"/>
  <path d="M63.9601 38.8278H63.0691V32.8773H60.587L60.4517 36.6691C60.404 38.0233 59.9107 38.9712 58.8924 38.9712C58.7015 38.9712 58.4231 38.9075 58.248 38.8358V38.079C58.3674 38.1587 58.6299 38.1746 58.7333 38.1746C59.2186 38.1746 59.5687 37.9117 59.6084 36.1991L59.7278 32.0967H63.9521L63.9601 38.8278Z" fill="#4A4A4A"/>
  <path d="M66.9434 35.4579C66.9434 37.1387 67.8583 38.2301 69.2823 38.2301C70.6904 38.2301 71.6053 37.1308 71.6053 35.4579C71.6053 33.7931 70.6904 32.7177 69.2664 32.7177C67.6832 32.7177 66.9434 34.0161 66.9434 35.4579ZM72.4963 35.4102C72.4963 37.3857 71.4144 38.9868 69.2743 38.9868C67.1184 38.9868 66.0524 37.3459 66.0524 35.3863C66.0524 33.2912 67.3093 31.937 69.2664 31.937C71.3507 31.945 72.4963 33.4028 72.4963 35.4102Z" fill="#4A4A4A"/>
  <path d="M75.4558 38.0791H77.2298C78.1288 38.0791 79.0039 38.0233 79.0039 36.8444C79.0039 35.6734 77.9777 35.6814 77.0787 35.6814H75.4558V38.0791ZM75.4558 34.9804H77.0548C77.8106 34.9804 78.7175 34.9246 78.7175 33.913C78.7175 32.9013 77.9299 32.8535 77.1423 32.8535H75.4637C75.4558 32.8615 75.4558 34.9804 75.4558 34.9804ZM77.4606 32.1047C78.5743 32.1047 79.6006 32.5508 79.6006 33.7855C79.6006 34.4467 79.2108 35.0122 78.6061 35.2273C79.4335 35.4185 79.9029 36.0398 79.9029 36.932C79.9029 38.4774 78.638 38.8279 77.3571 38.8279H74.5886V32.1047H77.4606Z" fill="#4A4A4A"/>
  <path d="M87.3492 38.8279H86.4582V35.6814H82.9101V38.8279H82.019V32.1047H82.9101V34.9087H86.4582V32.1047H87.3492V38.8279Z" fill="#4A4A4A"/>
  <path d="M92.3055 32.9491L91.144 36.0558H93.4511L92.3055 32.9491ZM95.4558 38.8279H94.4614L93.7136 36.7647H90.8894L90.1257 38.8279H89.179L91.8202 32.1047H92.8226L95.4558 38.8279Z" fill="#4A4A4A"/>
  <path d="M106.395 38.8279H105.504V32.8774H101.955V38.8279H101.064V32.1047H106.387L106.395 38.8279Z" fill="#4A4A4A"/>
  <path d="M109.386 35.4579C109.386 37.1387 110.301 38.2301 111.725 38.2301C113.133 38.2301 114.048 37.1308 114.048 35.4579C114.048 33.7931 113.133 32.7177 111.709 32.7177C110.126 32.7177 109.386 34.0161 109.386 35.4579ZM114.939 35.4102C114.939 37.3857 113.849 38.9868 111.717 38.9868C109.561 38.9868 108.495 37.3459 108.495 35.3863C108.495 33.2912 109.752 31.937 111.709 31.937C113.801 31.945 114.939 33.4028 114.939 35.4102Z" fill="#4A4A4A"/>
  <path d="M117.031 32.1047H117.922V38.0552H120.905V32.1047H121.796V38.0552H124.78V32.1047H125.671V38.8279H117.039L117.031 32.1047Z" fill="#4A4A4A"/>
  <path d="M132.95 32.8774H130.691V38.8279H129.8V32.8774H127.54V32.1047H132.942V32.8774" fill="#4A4A4A"/>
  <path d="M136.387 32.9491L135.225 36.0558H137.533L136.387 32.9491ZM139.537 38.8279H138.543L137.795 36.7647H134.971L134.207 38.8279H133.268L135.91 32.1047H136.912L139.537 38.8279Z" fill="#4A4A4A"/>
  <path d="M147.779 34.8051L150.723 38.8279H149.593L147.159 35.4105L146.045 36.47V38.8279H145.154V32.1047H146.045V35.4424L149.45 32.1047H150.611L147.779 34.8051Z" fill="#4A4A4A"/>
  <path d="M153.491 35.3229H155.202C156.061 35.3229 156.721 35.0839 156.721 34.0962C156.721 33.0208 155.957 32.8694 155.074 32.8694H153.491V35.3229ZM155.369 32.1047C156.658 32.1047 157.604 32.6464 157.604 34.0404C157.604 35.5619 156.626 36.0717 155.313 36.0717H153.491V38.8279H152.6V32.1047H155.369Z" fill="#4A4A4A"/>
  <path d="M161.534 32.9491L160.373 36.0558H162.68L161.534 32.9491ZM164.677 38.8279H163.682L162.934 36.7647H160.11L159.346 38.8279H158.408L161.049 32.1047H162.051L164.677 38.8279Z" fill="#4A4A4A"/>
  <path d="M168.288 31.5232H167.437V30.5673H168.288V31.5232ZM167.413 38.8279H166.522V32.1047H167.413V38.8279ZM166.506 31.5232H165.655V30.5673H166.506V31.5232Z" fill="#4A4A4A"/>
  <path d="M175.194 38.8279H174.311V35.6814H170.763V38.8279H169.872V32.1047H170.763V34.9087H174.311V32.1047H175.194V38.8279Z" fill="#4A4A4A"/>
  <path d="M177.636 32.1047H178.527V37.8003H178.543L181.837 32.1047H182.958V38.8279H182.075V33.1084H182.059L178.75 38.8279H177.636V32.1047Z" fill="#4A4A4A"/>
</svg>