<svg width="164" height="44" viewBox="0 0 164 44" fill="none" xmlns="http://www.w3.org/2000/svg">
<path d="M28.8299 25.2161L14.3071 21.9251C9.97945 20.9471 7.2631 16.6353 8.23984 12.3021C9.21659 7.96881 13.5228 5.24894 17.8504 6.22695C22.178 7.20496 24.8944 11.5168 23.9176 15.85C23.4257 18.0202 22.1067 19.7835 20.36 20.8829C20.36 20.8829 20.3529 20.8829 20.3529 20.89C20.303 20.9257 20.2673 20.99 20.2673 21.0542C20.2673 21.147 20.3315 21.2255 20.4171 21.247L26.8764 22.7104C27.0332 22.7461 27.1901 22.689 27.2828 22.5605C29.0652 20.2047 30.1346 17.2635 30.1346 14.0796C30.1346 6.58389 24.2884 0.458809 16.9093 0.0233459C16.8452 0.0162048 16.4459 0.00193024 16.3105 0.00193024C13.0451 -0.0480423 9.73704 0.887138 6.85672 2.90741C-0.415386 8.00451 -2.18351 18.0416 2.90697 25.3161L15.8399 43.7912C15.8969 43.8698 15.9825 43.9126 16.0823 43.9126C16.1821 43.9126 16.2748 43.8626 16.3247 43.7841C16.3247 43.7841 29.0081 25.6659 29.0152 25.6659C29.0509 25.6159 29.0652 25.5588 29.0652 25.4945C29.0652 25.366 28.9653 25.2447 28.8299 25.2161Z" fill="#FABC26"/>
<path d="M41.2637 8.65401C41.4206 8.65401 41.5204 8.70398 41.5703 8.81106L45.8765 16.1711H46.0833L49.7479 8.911C49.8263 8.73253 49.9831 8.65401 50.1899 8.65401H52.8207C53.056 8.65401 53.1843 8.88958 53.0774 9.06805L45.4916 22.4961C45.4131 22.6532 45.2563 22.7317 45.0567 22.7317H42.4758C42.1906 22.7317 42.1692 22.5532 42.269 22.3462L44.3081 18.8625L38.2195 8.99667C38.1125 8.8182 38.1909 8.66114 38.3763 8.66114L41.2637 8.65401Z" fill="#222222"/>
<path d="M57.6046 8.65401C57.8399 8.65401 57.9682 8.7825 57.9682 9.01808V14.5435L63.7716 8.86103C63.9285 8.73253 64.1566 8.65401 64.4418 8.65401H67.5859C67.8212 8.65401 67.8925 8.86103 67.7142 9.0395L61.5472 14.8219L68.0992 22.3391C68.2775 22.5175 68.1777 22.7246 67.9424 22.7246H64.8482C64.563 22.7246 64.3562 22.646 64.1994 22.4676L59.2872 16.6709L57.9539 17.913V22.3676C57.9539 22.6032 57.8256 22.7317 57.5903 22.7317H55.3374C55.1021 22.7317 54.9738 22.6032 54.9738 22.3676V9.01094C54.9738 8.77536 55.1021 8.64687 55.3374 8.64687H57.6046" fill="#222222"/>
<path d="M76.6618 16.1426C78.2374 16.1426 79.1357 15.1646 79.1357 13.7939C79.1357 12.4518 78.2303 11.4952 76.6618 11.4952H72.9188V16.1426H76.6618ZM76.6618 8.65401C79.7845 8.65401 82.1301 10.9027 82.1301 13.7939C82.1301 16.7922 79.7845 18.9838 76.6618 18.9838H72.9188V22.3676C72.9188 22.6032 72.7905 22.7317 72.5552 22.7317H70.288C70.0527 22.7317 69.9244 22.6032 69.9244 22.3676V9.01094C69.9244 8.77536 70.0527 8.64687 70.288 8.64687H76.6618" fill="#222222"/>
<path d="M96.2252 8.65401C96.4605 8.65401 96.5888 8.7825 96.5888 9.01808V22.3676C96.5888 22.6032 96.4605 22.7317 96.2252 22.7317H93.958C93.7298 22.7317 93.5944 22.6032 93.5944 22.3676V11.4667H87.3489V22.3676C87.3489 22.6032 87.2206 22.7317 86.9853 22.7317H84.7181C84.4829 22.7317 84.3545 22.6032 84.3545 22.3676V9.01094C84.3545 8.77536 84.4829 8.64687 84.7181 8.64687H96.2252" fill="#222222"/>
<path d="M102.271 15.6995C102.271 18.2552 104.075 20.1184 106.656 20.1184C109.208 20.1184 111.019 18.2623 111.019 15.6995C111.019 13.0938 109.215 11.2592 106.656 11.2592C104.075 11.2592 102.271 13.0938 102.271 15.6995ZM106.656 8.4465C110.705 8.4465 114.035 11.5733 114.035 15.7066C114.035 19.8686 110.705 22.9382 106.656 22.9382C102.578 22.9382 99.2552 19.8614 99.2552 15.7066C99.2481 11.5661 102.578 8.4465 106.656 8.4465Z" fill="#222222"/>
<path d="M124.045 19.9119V9.01094C124.045 8.77536 124.173 8.64687 124.408 8.64687H126.625C126.861 8.64687 126.989 8.77536 126.989 9.01094V19.9119H131.402V9.01094C131.402 8.77536 131.531 8.64687 131.766 8.64687H133.983C134.218 8.64687 134.347 8.77536 134.347 9.01094V22.3676C134.347 22.6032 134.218 22.7317 133.983 22.7317H117.065C116.887 22.7317 116.701 22.6032 116.701 22.3676V9.01094C116.701 8.77536 116.829 8.64687 117.065 8.64687H119.282C119.517 8.64687 119.646 8.77536 119.646 9.01094V19.9119H124.045Z" fill="#222222"/>
<path d="M148.677 8.65401C148.905 8.65401 149.041 8.7825 149.041 9.01808V11.1383C149.041 11.3739 148.912 11.5024 148.677 11.5024H144.185V22.3676C144.185 22.6032 144.057 22.7317 143.822 22.7317H141.555C141.319 22.7317 141.191 22.6032 141.191 22.3676V11.4952H136.699C136.464 11.4952 136.336 11.3667 136.336 11.1312V9.01094C136.336 8.77536 136.464 8.64687 136.699 8.64687H148.677" fill="#222222"/>
<path d="M153.782 17.2275H158.68L156.413 11.4451H156.127L153.782 17.2275ZM159.714 19.9402H152.698L151.721 22.4174C151.643 22.6244 151.486 22.7244 151.286 22.7244H148.734C148.477 22.7244 148.399 22.5959 148.477 22.3603L154.566 8.8537C154.616 8.72521 154.723 8.64668 154.901 8.64668H157.838C158.017 8.64668 158.124 8.72521 158.174 8.8537L163.977 22.3103C164.055 22.5173 163.927 22.7244 163.692 22.7244H161.239C160.983 22.7244 160.797 22.5959 160.697 22.3603L159.714 19.9402Z" fill="#222222"/>
<path d="M40.2086 34.7964V28.7713H44.1726V29.4637H41.0071V34.7964H40.2086Z" fill="#4A4A4A"/>
<path d="M46.119 31.7765C46.119 33.2828 46.9388 34.2608 48.215 34.2608C49.477 34.2608 50.2968 33.2756 50.2968 31.7765C50.2968 30.2845 49.477 29.3207 48.2008 29.3207C46.7749 29.3207 46.119 30.4844 46.119 31.7765ZM51.0954 31.7337C51.0954 33.5041 50.1186 34.939 48.2079 34.939C46.2758 34.939 45.3204 33.4684 45.3204 31.7122C45.3204 29.8347 46.4469 28.6211 48.2008 28.6211C50.0687 28.6283 51.0954 29.9347 51.0954 31.7337Z" fill="#4A4A4A"/>
<path d="M57.3194 34.7966H56.5209V29.4639H54.2965L54.1753 32.8619C54.1325 34.0755 53.6905 34.925 52.7779 34.925C52.6068 34.925 52.3573 34.8679 52.2004 34.8037V34.1255C52.3074 34.1969 52.5427 34.2112 52.6353 34.2112C53.0702 34.2112 53.3839 33.9756 53.4196 32.4408L53.5265 28.7643H57.3123L57.3194 34.7966Z" fill="#4A4A4A"/>
<path d="M59.993 31.7765C59.993 33.2828 60.8129 34.2608 62.0891 34.2608C63.351 34.2608 64.1709 33.2756 64.1709 31.7765C64.1709 30.2845 63.351 29.3207 62.0748 29.3207C60.656 29.3207 59.993 30.4844 59.993 31.7765ZM64.9694 31.7337C64.9694 33.5041 63.9998 34.939 62.0819 34.939C60.1498 34.939 59.1945 33.4684 59.1945 31.7122C59.1945 29.8347 60.3209 28.6211 62.0748 28.6211C63.9427 28.6283 64.9694 29.9347 64.9694 31.7337Z" fill="#4A4A4A"/>
<path d="M67.6216 34.1253H69.2114C70.0171 34.1253 70.8013 34.0754 70.8013 33.0188C70.8013 31.9694 69.8816 31.9766 69.076 31.9766H67.6216V34.1253ZM67.6216 31.3484H69.0546C69.7319 31.3484 70.5447 31.2984 70.5447 30.3918C70.5447 29.4851 69.8388 29.4423 69.133 29.4423H67.6287C67.6216 29.4494 67.6216 31.3484 67.6216 31.3484ZM69.4182 28.7713C70.4163 28.7713 71.336 29.171 71.336 30.2775C71.336 30.8701 70.9867 31.3769 70.4449 31.5697C71.1863 31.741 71.607 32.2978 71.607 33.0974C71.607 34.4823 70.4734 34.7964 69.3255 34.7964H66.8445V28.7713H69.4182Z" fill="#4A4A4A"/>
<path d="M78.2802 34.7964H77.4817V31.9766H74.3019V34.7964H73.5034V28.7713H74.3019V31.2841H77.4817V28.7713H78.2802V34.7964Z" fill="#4A4A4A"/>
<path d="M82.7219 29.528L81.681 32.3121H83.7485L82.7219 29.528ZM85.5452 34.7964H84.654L83.9838 32.9474H81.4528L80.7684 34.7964H79.92L82.287 28.7713H83.1853L85.5452 34.7964Z" fill="#4A4A4A"/>
<path d="M95.3482 34.7964H94.5497V29.4637H91.37V34.7964H90.5715V28.7713H95.3411L95.3482 34.7964Z" fill="#4A4A4A"/>
<path d="M98.0289 31.7765C98.0289 33.2828 98.8488 34.2608 100.125 34.2608C101.387 34.2608 102.207 33.2756 102.207 31.7765C102.207 30.2845 101.387 29.3207 100.111 29.3207C98.692 29.3207 98.0289 30.4844 98.0289 31.7765ZM103.005 31.7337C103.005 33.5041 102.029 34.939 100.118 34.939C98.1858 34.939 97.2304 33.4684 97.2304 31.7122C97.2304 29.8347 98.3569 28.6211 100.111 28.6211C101.986 28.6283 103.005 29.9347 103.005 31.7337Z" fill="#4A4A4A"/>
<path d="M104.88 28.7713H105.679V34.1039H108.352V28.7713H109.151V34.1039H111.825V28.7713H112.623V34.7964H104.887L104.88 28.7713Z" fill="#4A4A4A"/>
<path d="M119.147 29.4637H117.122V34.7964H116.323V29.4637H114.299V28.7713H119.139V29.4637" fill="#4A4A4A"/>
<path d="M122.227 29.528L121.186 32.3121H123.253L122.227 29.528ZM125.05 34.7964H124.159L123.488 32.9474H120.957L120.273 34.7964H119.432L121.799 28.7713H122.697L125.05 34.7964Z" fill="#4A4A4A"/>
<path d="M132.436 31.1913L135.074 34.7964H134.062L131.88 31.7338L130.882 32.6833V34.7964H130.083V28.7713H130.882V31.7624L133.933 28.7713H134.974L132.436 31.1913Z" fill="#4A4A4A"/>
<path d="M137.555 31.6553H139.088C139.858 31.6553 140.45 31.4412 140.45 30.5559C140.45 29.5922 139.765 29.4566 138.974 29.4566H137.555V31.6553ZM139.238 28.7713C140.393 28.7713 141.241 29.2567 141.241 30.506C141.241 31.8695 140.364 32.3264 139.188 32.3264H137.555V34.7964H136.756V28.7713H139.238Z" fill="#4A4A4A"/>
<path d="M144.763 29.528L143.722 32.3121H145.79L144.763 29.528ZM147.579 34.7964H146.688L146.018 32.9474H143.487L142.802 34.7964H141.961L144.328 28.7713H145.226L147.579 34.7964Z" fill="#4A4A4A"/>
<path d="M150.816 28.2501H150.053V27.3935H150.816V28.2501ZM150.032 34.7964H149.233V28.7713H150.032V34.7964ZM149.219 28.2501H148.456V27.3935H149.219V28.2501Z" fill="#4A4A4A"/>
<path d="M157.004 34.7964H156.213V31.9766H153.033V34.7964H152.235V28.7713H153.033V31.2841H156.213V28.7713H157.004V34.7964Z" fill="#4A4A4A"/>
<path d="M159.193 28.7713H159.992V33.8755H160.006L162.957 28.7713H163.963V34.7964H163.171V29.6707H163.157L160.191 34.7964H159.193V28.7713Z" fill="#4A4A4A"/>
</svg>
