<svg width="144" height="46" viewBox="0 0 144 46" fill="none" xmlns="http://www.w3.org/2000/svg">
<g clip-path="url(#clip0_1_2110)">
<path d="M62.374 45.3182H50.764L58.0362 0.810547H69.71L62.374 45.3182Z" fill="#00579F"/>
<path d="M104.668 1.88077C102.371 0.999433 98.7352 -0.0078125 94.206 -0.0078125C82.6597 -0.0078125 74.5582 6.03566 74.4944 14.7231C74.4306 21.1443 80.2994 24.6697 84.701 26.8101C89.2302 29.0134 90.7612 30.3984 90.7612 32.3499C90.6974 35.3087 87.1251 36.6937 83.7442 36.6937C79.0874 36.6937 76.5995 36.0012 72.772 34.3015L71.241 33.609L69.71 43.6185C72.4531 44.8776 77.4926 45.9478 82.7235 46.0107C94.9715 46.0107 102.945 40.0302 103.009 30.7761C103.073 25.6769 99.9472 21.8368 93.1853 18.6262C89.1026 16.6117 86.6148 15.2268 86.6148 13.1493C86.6786 11.2607 88.7199 9.30921 93.3129 9.30921C97.0766 9.1833 99.8834 10.1276 101.989 11.0089L103.137 11.5126L104.668 1.88077Z" fill="#00579F"/>
<path d="M120.169 29.58C121.126 26.9989 124.826 17.1153 124.826 17.1153C124.762 17.2412 125.783 14.5343 126.357 12.8345L127.186 16.6747C127.186 16.6747 129.419 27.3137 129.865 29.58C128.079 29.58 122.529 29.58 120.169 29.58ZM134.586 0.810547H125.591C122.785 0.810547 120.679 1.62893 119.467 4.52476L102.116 45.3811H114.364C114.364 45.3811 116.405 39.9042 116.788 38.7081C118.128 38.7081 130.057 38.7081 131.779 38.7081C132.098 40.282 133.183 45.3811 133.183 45.3811H143.963L134.586 0.810547Z" fill="#00579F"/>
<path d="M41.0039 0.810547L29.5852 31.1538L28.3094 24.9844C26.2043 17.9337 19.5699 10.1905 12.1701 6.3504L22.6319 45.2552H34.9437L53.3156 0.810547H41.0039Z" fill="#00579F"/>
<path d="M18.932 0.810547H0.177337L-0.0140381 1.69189C14.658 5.4061 24.3543 14.2825 28.3094 24.9844L24.2267 4.52476C23.5888 1.69189 21.4837 0.8735 18.932 0.810547Z" fill="#FAA61A"/>
</g>
<defs>
<clipPath id="clip0_1_2110">
<rect width="144" height="46" fill="white"/>
</clipPath>
</defs>
</svg>
