<svg width="76" height="26" viewBox="0 0 76 26" fill="none" xmlns="http://www.w3.org/2000/svg">
<g clip-path="url(#clip0_1_2513)">
<path d="M32.9196 25.6147H26.7921L30.6302 0.458252H36.7914L32.9196 25.6147Z" fill="#00579F"/>
<path d="M55.2413 1.06307C54.0293 0.564918 52.1102 -0.00439453 49.7198 -0.00439453C43.6259 -0.00439453 39.3501 3.41148 39.3165 8.3218C39.2828 11.9512 42.3802 13.9438 44.7033 15.1536C47.0937 16.3989 47.9017 17.1817 47.9017 18.2848C47.8681 19.9571 45.9827 20.7399 44.1983 20.7399C41.7405 20.7399 40.4275 20.3485 38.4074 19.3878L37.5994 18.9964L36.7914 24.654C38.2391 25.3656 40.8988 25.9705 43.6596 26.0061C50.1238 26.0061 54.3323 22.6258 54.3659 17.3952C54.3996 14.5131 52.7499 12.3426 49.1811 10.5279C47.0264 9.38926 45.7133 8.60646 45.7133 7.43225C45.747 6.36479 46.8244 5.26175 49.2484 5.26175C51.2348 5.19058 52.7162 5.72431 53.8272 6.22246L54.4333 6.50712L55.2413 1.06307Z" fill="#00579F"/>
<path d="M63.4226 16.7192C63.9276 15.2604 65.8804 9.674 65.8804 9.674C65.8467 9.74516 66.3854 8.21513 66.6884 7.25442L67.1261 9.42492C67.1261 9.42492 68.3044 15.4383 68.5401 16.7192C67.5974 16.7192 64.6683 16.7192 63.4226 16.7192ZM71.0315 0.458252H66.2844C64.803 0.458252 63.692 0.920818 63.0523 2.55759L53.8947 25.6503H60.3589C60.3589 25.6503 61.4362 22.5547 61.6382 21.8786C62.3453 21.8786 68.6411 21.8786 69.5501 21.8786C69.7185 22.7682 70.2908 25.6503 70.2908 25.6503H75.9807L71.0315 0.458252Z" fill="#00579F"/>
<path d="M21.641 0.458252L15.6144 17.6088L14.9411 14.1218C13.8301 10.1366 10.3286 5.75997 6.42316 3.58947L11.9447 25.5792H18.4425L28.1388 0.458252H21.641Z" fill="#00579F"/>
<path d="M9.99193 0.458252H0.0936183L-0.00738525 0.9564C7.73619 3.05574 12.8537 8.07281 14.9411 14.1218L12.7863 2.55759C12.4497 0.9564 11.3386 0.493834 9.99193 0.458252Z" fill="#FAA61A"/>
</g>
<defs>
<clipPath id="clip0_1_2513">
<rect width="76" height="26" fill="white"/>
</clipPath>
</defs>
</svg>
