<svg xmlns="http://www.w3.org/2000/svg" width="70" height="70" viewBox="0 0 70 70" fill="none">
<rect width="70" height="70" fill="white"/>
<path d="M46.9283 41.1631C46.7637 40.5172 46.3283 39.9777 45.7335 39.6821L40.3387 36.9984C39.3777 36.5213 38.2366 36.7735 37.5626 37.6133L36.5413 38.8889C35.2038 38.201 32.8194 36.5784 31.0761 33.1954L32.0501 32.4855C32.9162 31.8543 33.2277 30.7224 32.8079 29.7332L30.5397 24.3899C30.274 23.7644 29.7511 23.2931 29.1037 23.097C28.4574 22.902 27.7626 23.0037 27.1985 23.377L23.0245 26.1446C22.2896 26.6311 21.8969 27.5087 22.0235 28.379C22.4787 31.513 25.574 47.1874 41.8647 47.9974C41.9002 47.9995 41.9356 48 41.971 48C42.7095 48 43.42 47.6283 43.8444 47.0128L46.5924 43.041C46.971 42.4937 47.0934 41.8085 46.9278 41.1626L46.9283 41.1631ZM41.9012 45.5611C28.0506 44.823 25.0386 32.1704 24.4329 28.1273L28.3834 25.5081L30.5365 30.5825L29.5574 31.2965C28.661 31.9503 28.3574 33.1823 28.8501 34.1637C30.9543 38.3468 33.9558 40.3164 35.5579 41.1191C36.5272 41.6035 37.6757 41.3529 38.3507 40.5109L39.372 39.2349L44.5101 41.7901L41.9007 45.5617L41.9012 45.5611Z" fill="#A2A694"/>
</svg>