<svg width="64" height="64" viewBox="0 0 64 64" fill="none" xmlns="http://www.w3.org/2000/svg">
<rect width="64" height="64" fill="#262626"/>
<g clip-path="url(#clip0_1_1888)">
<path d="M43.9976 39.3384C43.9642 38.41 43.5775 37.5436 42.9088 36.8989C41.5995 35.6364 40.5026 34.9076 39.4566 34.6053C38.0154 34.1888 36.6804 34.5676 35.489 35.7311C35.4873 35.7328 35.4855 35.7346 35.4837 35.7364L34.2162 36.9944C33.4241 36.5479 31.8837 35.5674 30.2196 33.9033L30.0962 33.78C28.4318 32.1156 27.4514 30.575 27.0053 29.7838L28.2634 28.5162C28.2652 28.5144 28.267 28.5127 28.2687 28.5108C29.4322 27.3196 29.811 25.9846 29.3945 24.5433C29.0922 23.4974 28.3634 22.4004 27.1009 21.0911C26.4562 20.4226 25.5899 20.0358 24.6615 20.0024C23.7326 19.9689 22.8412 20.2922 22.1499 20.9127L22.123 20.9369C22.1105 20.9481 22.0983 20.9597 22.0864 20.9716C20.7102 22.3478 19.9888 24.2744 20.0001 26.5432C20.0194 30.3973 22.1376 34.8049 25.6663 38.3335C26.3317 38.9989 27.088 39.6574 27.914 40.2908C28.3248 40.6058 28.9133 40.5282 29.2284 40.1173C29.5435 39.7064 29.4657 39.1179 29.0548 38.8029C28.2938 38.2193 27.5998 37.6154 26.9921 37.0078C23.8048 33.8205 21.8919 29.905 21.8751 26.5338C21.8664 24.7865 22.392 23.3281 23.3953 22.3144L23.4025 22.3079C24.0839 21.6962 25.1156 21.7335 25.7513 22.3927C28.1784 24.9098 28.0027 26.0981 26.9302 27.1979L25.1923 28.9487C24.9198 29.2233 24.8439 29.6371 25.0013 29.9906C25.0454 30.0897 26.1127 32.4481 28.7707 35.1061L28.8941 35.2294C31.5519 37.8871 33.9103 38.9544 34.0094 38.9985C34.3628 39.156 34.7767 39.08 35.0512 38.8075L36.8021 37.0696C37.9021 35.9971 39.0904 35.8214 41.6073 38.2486C42.2666 38.8842 42.3038 39.9159 41.6922 40.5972L41.6856 40.6046C40.6802 41.5997 39.2373 42.1249 37.509 42.1249C37.4947 42.1249 37.4805 42.1249 37.4662 42.1248C36.0847 42.1179 34.485 41.7392 32.8401 41.0297C32.3648 40.8246 31.8131 41.0438 31.608 41.5192C31.4029 41.9947 31.6221 42.5463 32.0975 42.7514C33.9989 43.5715 35.802 43.9915 37.4568 43.9998C37.4744 43.9998 37.4919 43.9999 37.5094 43.9999C39.7554 43.9999 41.6629 43.279 43.0285 41.9135C43.0403 41.9016 43.0518 41.8894 43.0631 41.8769L43.0874 41.8499C43.7079 41.1586 44.0312 40.2667 43.9976 39.3384Z" fill="white"/>
</g>
<defs>
<clipPath id="clip0_1_1888">
<rect width="24" height="24" fill="white" transform="translate(20 20)"/>
</clipPath>
</defs>
</svg>
