<svg width="64" height="64" viewBox="0 0 64 64" fill="none" xmlns="http://www.w3.org/2000/svg">
<rect width="64" height="64" fill="#262626"/>
<g clip-path="url(#clip0_1_1881)">
<path d="M42.0963 35.2349C41.3008 34.536 40.3362 33.9321 39.229 33.4401C38.7557 33.2299 38.2018 33.4431 37.9916 33.9162C37.7814 34.3893 37.9945 34.9432 38.4677 35.1536C39.4013 35.5685 40.2059 36.0697 40.8586 36.6434C41.6634 37.3505 42.125 38.3745 42.125 39.4531V41.1875C42.125 41.7044 41.7044 42.125 41.1875 42.125H22.8125C22.2956 42.125 21.875 41.7044 21.875 41.1875V39.4531C21.875 38.3745 22.3366 37.3505 23.1414 36.6434C24.0886 35.811 26.8483 33.875 32 33.875C35.8253 33.875 38.9375 30.7628 38.9375 26.9375C38.9375 23.1122 35.8253 20 32 20C28.1747 20 25.0625 23.1122 25.0625 26.9375C25.0625 29.1738 26.1263 31.166 27.7743 32.4354C24.7589 33.0983 22.8832 34.3741 21.9037 35.2349C20.694 36.2979 20 37.8352 20 39.4531V41.1875C20 42.7384 21.2616 44 22.8125 44H41.1875C42.7384 44 44 42.7384 44 41.1875V39.4531C44 37.8352 43.306 36.2979 42.0963 35.2349ZM26.9375 26.9375C26.9375 24.1461 29.2086 21.875 32 21.875C34.7914 21.875 37.0625 24.1461 37.0625 26.9375C37.0625 29.7289 34.7914 32 32 32C29.2086 32 26.9375 29.7289 26.9375 26.9375Z" fill="white"/>
</g>
<defs>
<clipPath id="clip0_1_1881">
<rect width="24" height="24" fill="white" transform="translate(20 20)"/>
</clipPath>
</defs>
</svg>
