<svg width="20" height="28" viewBox="0 0 20 28" fill="none" xmlns="http://www.w3.org/2000/svg">
<path d="M1.5 7C0.947715 7 0.5 7.44772 0.5 8C0.5 8.55228 0.947715 9 1.5 9V7ZM19.2071 8.70711C19.5976 8.31658 19.5976 7.68342 19.2071 7.29289L12.8431 0.928932C12.4526 0.538408 11.8195 0.538408 11.4289 0.928932C11.0384 1.31946 11.0384 1.95262 11.4289 2.34315L17.0858 8L11.4289 13.6569C11.0384 14.0474 11.0384 14.6805 11.4289 15.0711C11.8195 15.4616 12.4526 15.4616 12.8431 15.0711L19.2071 8.70711ZM1.5 9H18.5V7H1.5V9Z" />
<path d="M18 21C18.5523 21 19 20.5523 19 20C19 19.4477 18.5523 19 18 19L18 21ZM0.292893 19.2929C-0.0976314 19.6834 -0.0976315 20.3166 0.292892 20.7071L6.65685 27.0711C7.04738 27.4616 7.68054 27.4616 8.07107 27.0711C8.46159 26.6805 8.46159 26.0474 8.07107 25.6569L2.41421 20L8.07107 14.3431C8.46159 13.9526 8.46159 13.3195 8.07107 12.9289C7.68054 12.5384 7.04738 12.5384 6.65686 12.9289L0.292893 19.2929ZM18 19L1 19L1 21L18 21L18 19Z" />
</svg>
