<svg width="30" height="17" viewBox="0 0 30 17" fill="none" xmlns="http://www.w3.org/2000/svg">
<path d="M28.2859 0.84945H25.7144C24.9116 0.851042 24.2173 1.40416 24.0429 2.18013L14.8682 0.159441C13.5109 -0.158902 12.0837 0.00265692 10.8333 0.615468L7.49357 2.13237C6.71086 2.52155 6.02298 3.07467 5.47734 3.75354L4.40212 5.09456H1.71408C0.767438 5.09536 0.0008036 5.8554 0 6.79213V15.2815C0.0008036 16.2191 0.768241 16.9783 1.71408 16.9791H19.7147C20.6614 16.9783 21.428 16.2183 21.4288 15.2815V12.4061C21.5951 12.3488 21.7615 12.2883 21.9238 12.2167L24.3113 11.159C24.6311 11.6142 25.1543 11.8856 25.7144 11.8864H28.2859C29.2326 11.8856 29.9992 11.1256 30 10.1888V2.54702C29.9992 1.6095 29.2318 0.850246 28.2859 0.84945ZM19.7139 15.2808H1.71328V6.79213H16.4489L16.244 7.19244C16.117 7.44155 15.8743 7.61266 15.5947 7.65006L10.7289 8.30664C9.50016 8.47218 8.6387 9.59355 8.80585 10.8104C8.95693 11.9127 9.90839 12.7348 11.0318 12.7348H19.472C19.5532 12.7348 19.632 12.7253 19.7123 12.7221V15.2815L19.7139 15.2808ZM21.2239 10.6664C20.6734 10.9107 20.0771 11.0372 19.4736 11.0364H11.0334C10.7401 11.0364 10.5014 10.8009 10.5014 10.5104C10.5014 10.2469 10.6975 10.0241 10.9611 9.98829L15.8269 9.33171C16.6643 9.2187 17.3923 8.70537 17.774 7.95885L18.609 6.32655C18.8227 5.90872 18.654 5.39778 18.2321 5.18608C18.1123 5.1256 17.9797 5.09456 17.8447 5.09456H6.59033L6.81935 4.80885C7.20267 4.33133 7.68483 3.94056 8.23369 3.66361L11.5734 2.1475C12.4743 1.70261 13.5053 1.58482 14.4849 1.81562L24.0003 3.91112V9.43676L21.2239 10.6664ZM28.2859 10.1873H25.7144V2.54702H28.2859V10.1873Z"/>
</svg>
