<svg width="30" height="20" viewBox="0 0 30 20" fill="none" xmlns="http://www.w3.org/2000/svg">
<path d="M27.2731 11.0497V1.7892C27.2723 0.801071 26.4583 0.000838817 25.4552 0H9.99986C8.99587 0.000838817 8.18279 0.80191 8.18193 1.7892V8.56348L6.34015 9.16743C6.22594 8.2766 5.45718 7.60807 4.54523 7.60555H1.81878C0.814784 7.60639 0.00170457 8.40746 0 9.39475V17.4474C0.000852285 18.4355 0.814784 19.2357 1.81792 19.2366H4.54523C5.34809 19.2341 6.05378 18.7123 6.27963 17.954L8.96433 17.5145C9.27712 17.4625 9.59928 17.5103 9.88309 17.6504L12.6726 19.0235C14.1812 19.7701 15.9309 19.8925 17.5315 19.3632L28.2873 15.8352C29.599 15.4049 30.3081 14.0082 29.8709 12.7173C29.8615 12.6888 29.8513 12.6603 29.8402 12.6326C29.4396 11.6 28.3913 10.9541 27.2723 11.0514L27.2731 11.0497ZM4.54523 17.4465H1.81792V9.39391H4.54523V17.4465ZM19.0912 1.78836V4.68144L18.1954 4.15214C17.9074 3.98186 17.5477 3.98186 17.2596 4.15214L16.3639 4.68144V1.78836H19.0912V1.78836ZM9.99986 1.78836H14.5451V6.26177C14.5451 6.75583 14.9525 7.15678 15.4545 7.15678C15.619 7.15678 15.7809 7.11233 15.9224 7.02928L17.7275 5.96315L19.5327 7.02928C19.9631 7.28345 20.5222 7.14588 20.7804 6.72228C20.8648 6.58303 20.91 6.4245 20.91 6.26177V1.78836H25.4552V11.3014L20.5332 12.0194C20.5256 11.0028 19.8719 10.1002 18.8986 9.76047L13.2377 7.93521C12.209 7.60555 11.1002 7.60891 10.0732 7.94275L10.0016 7.96624V1.7892L9.99986 1.78836ZM28.1143 13.786C28.0351 13.952 27.8893 14.0787 27.712 14.1357L16.9562 17.6638C15.8133 18.0429 14.563 17.9557 13.4857 17.4214L10.6953 16.0482C10.068 15.7387 9.35723 15.633 8.66518 15.7479L6.36316 16.1254V11.0447L10.6467 9.63968C11.3039 9.42494 12.013 9.42327 12.6701 9.63465L18.3037 11.4507C18.6344 11.569 18.8048 11.9288 18.6838 12.2534C18.5781 12.5403 18.2772 12.7097 17.9721 12.6561L11.8169 11.5547C11.3235 11.4624 10.8479 11.7812 10.7541 12.2669C10.6604 12.7525 10.9842 13.2206 11.4777 13.3129C11.4828 13.3137 11.4871 13.3145 11.4922 13.3154L17.6466 14.4167C18.3165 14.5367 19.0077 14.3756 19.5514 13.9713L27.3941 12.828C27.7137 12.7827 28.0223 12.9614 28.1365 13.2592C28.203 13.4303 28.1944 13.6215 28.1135 13.7868L28.1143 13.786Z" />
</svg>
