<svg width="119" height="24" viewBox="0 0 119 24" fill="none" xmlns="http://www.w3.org/2000/svg">
<g clip-path="url(#clip0_1_2479)">
<path d="M67.5983 2.17879C67.3992 1.63218 67.1382 1.16839 66.5763 1.14769H66.5409H66.072H65.1694C65.1296 1.14355 65.0854 1.1394 65.0411 1.1394H64.5899C64.5456 1.1394 64.5014 1.14355 64.4616 1.14769C63.9926 1.21394 63.7581 1.65288 63.5812 2.16637L56.6353 20.3328C56.6353 20.573 56.8432 20.7676 57.0998 20.7676H58.5509C59.126 20.7676 59.4225 20.3245 59.595 19.7903L60.9798 16.0055C61.0771 15.7446 61.3381 15.5707 61.6345 15.5707H69.3591C69.6511 15.5707 69.9121 15.7446 70.0094 16.0014L71.4517 19.8276C71.6287 20.3618 71.9384 20.8049 72.5401 20.8049H74.0575C74.3274 20.8049 74.5442 20.6103 74.5442 20.3701L67.5983 2.17879ZM61.931 13.4215L65.4349 3.86416L69.0406 13.4215H61.931Z" fill="#76A62D"/>
<path d="M87.9051 1.19698C87.7193 1.13072 86.6442 1.139 86.6442 1.139C85.9231 1.15557 85.4629 1.139 85.14 1.55724C85.0913 1.61936 85.0559 1.68561 85.0205 1.75187L80.7158 10.4686L76.2828 1.75601C76.2475 1.68975 76.2121 1.6235 76.1634 1.56138C75.8404 1.14314 75.3803 1.15557 74.6592 1.14314C74.6592 1.14314 73.5841 1.13486 73.3983 1.20112C72.9559 1.35847 73.2479 1.86781 73.4558 2.28605L78.8931 12.4397C79.1408 12.9035 79.2691 13.4128 79.2691 13.9305V20.0591C79.2691 20.4732 79.6275 20.8086 80.0699 20.8086H81.2069C81.6493 20.8086 82.0077 20.4732 82.0077 20.0591V13.9595C82.0077 13.4418 82.136 12.9325 82.3837 12.4687L87.8431 2.28191C88.0555 1.86367 88.3475 1.35433 87.9051 1.19698Z" fill="#76A62D"/>
<path d="M108.69 10.6796L95.6385 0.447304C95.5412 0.372767 95.3996 0.376908 95.3111 0.463868L93.3822 2.34387L104.04 10.6796L93.3822 19.0154L95.3111 20.8954C95.3996 20.9824 95.5412 20.9865 95.6385 20.912L108.69 10.6796Z" fill="#76A62D"/>
<path d="M118.069 10.7624L105.018 0.530068C104.92 0.45553 104.779 0.459671 104.69 0.546632L102.761 2.42663L113.419 10.7624L102.761 19.0982L104.69 20.9782C104.779 21.0651 104.92 21.0693 105.018 20.9947L118.069 10.7624Z" fill="#76A62D"/>
<path d="M16.0128 1.12646H14.367C14.0219 1.12646 13.7476 1.38735 13.7476 1.7062V20.1542C13.7476 20.4896 14.0396 20.7671 14.4024 20.7671H15.9862C16.3446 20.7671 16.641 20.4938 16.641 20.1542V1.71034C16.6366 1.38735 16.3579 1.12646 16.0128 1.12646Z" fill="#76A62D"/>
<path d="M10.1242 18.4272H2.77572V1.71011C2.77572 1.38711 2.49699 1.13037 2.15634 1.13037H0.656551C0.311467 1.13037 0.0371704 1.39125 0.0371704 1.71011V18.4313V19.9594C0.0371704 20.3403 0.364557 20.6468 0.771578 20.6468H2.78014H10.1286C10.4826 20.6468 10.7657 20.3817 10.7657 20.0505V19.0235C10.7613 18.6964 10.4737 18.4272 10.1242 18.4272Z" fill="#76A62D"/>
<path d="M54.4807 2.21137C53.5649 1.63164 52.2996 1.22168 49.8796 1.22168H46.0615H45.1944C44.637 1.22168 44.1813 1.64406 44.1813 2.16996V19.7939C44.1813 20.3323 44.6458 20.7712 45.2254 20.7712H46.0306C46.6057 20.7712 47.0747 20.3364 47.0747 19.7939V13.1725C47.9418 13.1725 50.9414 13.1725 51.2953 13.1725C51.7067 13.1725 56.9892 12.3982 56.9892 7.0149C56.9848 4.67111 55.7017 2.98987 54.4807 2.21137ZM50.3353 11.1434C50.061 11.1434 47.3932 11.1434 47.3932 11.1434H47.0702V3.25076H49.3973C50.9945 3.25076 51.8306 3.51992 52.4367 3.90503C53.2464 4.41851 54.0914 5.52829 54.0914 7.07701C54.0958 10.6341 50.6096 11.1434 50.3353 11.1434Z" fill="#76A62D"/>
<path d="M41.5047 21.206C41.3897 21.1273 41.2614 21.0693 41.1242 21.0196C40.0359 20.6304 38.4476 19.5993 37.5628 19.0651C36.877 18.651 36.9832 18.3239 37.0761 18.1872C37.0938 18.1665 37.116 18.1416 37.1336 18.1209C37.1381 18.1168 37.1381 18.1168 37.1381 18.1168C38.6423 16.39 39.5138 13.9303 39.5138 10.8246C39.5138 5.33362 37.0053 0.88208 30.1966 0.88208C23.932 0.88208 20.9236 5.33362 20.9236 10.8246C20.9236 16.3155 22.9454 21.0155 30.1966 21.0155C31.6698 21.0155 33.0236 20.7505 34.2137 20.237H34.2181C34.5676 20.0962 34.9083 20.1003 35.3773 20.4192C38.7396 22.7505 40.4075 23.6077 41.602 23.6077C42.1772 23.6077 42.0754 21.9513 42.0754 21.9513C42.0754 21.9513 41.9914 21.5331 41.5047 21.206ZM23.8966 10.866C23.8966 10.8535 23.8966 10.8411 23.8966 10.8246C23.9055 7.09768 25.3566 3.14305 30.2054 3.14305C35.7002 3.14305 36.5408 7.09768 36.5452 10.8246C36.5452 10.837 36.5452 10.8494 36.5452 10.866C36.5452 15.3009 35.0101 18.6717 30.2054 18.6717C24.6885 18.6717 23.8966 14.6053 23.8966 10.866Z" fill="#76A62D"/>
</g>
<defs>
<clipPath id="clip0_1_2479">
<rect width="118.032" height="23.2143" fill="white" transform="translate(0.0371704 0.393066)"/>
</clipPath>
</defs>
</svg>
