<svg width="46" height="36" viewBox="0 0 46 36" fill="none" xmlns="http://www.w3.org/2000/svg">
<g clip-path="url(#clip0_1_2506)">
<path d="M8.3373 35.921V33.5318C8.3373 32.6179 7.78486 32.0194 6.8365 32.0194C6.36232 32.0194 5.84671 32.1772 5.49222 32.6968C5.216 32.2607 4.82009 32.0194 4.22621 32.0194C3.83029 32.0194 3.43438 32.1401 3.12133 32.5761V32.0983H2.29266V35.921H3.12133V33.8102C3.12133 33.1328 3.47581 32.8127 4.02825 32.8127C4.58069 32.8127 4.85692 33.17 4.85692 33.8102V35.921H5.68558V33.8102C5.68558 33.1328 6.08149 32.8127 6.5925 32.8127C7.14495 32.8127 7.42117 33.17 7.42117 33.8102V35.921H8.3373ZM20.6291 32.0983H19.2849V30.9432H18.4562V32.0983H17.7058V32.8545H18.4562V34.6081C18.4562 35.4849 18.8107 35.9999 19.759 35.9999C20.1135 35.9999 20.5094 35.8792 20.7857 35.7215L20.5463 35.0024C20.3069 35.1602 20.0307 35.2019 19.8327 35.2019C19.4368 35.2019 19.2803 34.9607 19.2803 34.5663V32.8545H20.6245V32.0983H20.6291ZM27.6636 32.0148C27.1894 32.0148 26.8717 32.256 26.6738 32.5715V32.0937H25.8451V35.9164H26.6738V33.7638C26.6738 33.1282 26.95 32.7663 27.4656 32.7663C27.6221 32.7663 27.8201 32.8081 27.9812 32.8452L28.2206 32.0473C28.0549 32.0148 27.8201 32.0148 27.6636 32.0148ZM17.0337 32.4138C16.6377 32.1354 16.0853 32.0148 15.4914 32.0148C14.5431 32.0148 13.9124 32.4926 13.9124 33.2488C13.9124 33.8844 14.3865 34.2462 15.2152 34.3622L15.6111 34.404C16.0439 34.4828 16.2833 34.6035 16.2833 34.8029C16.2833 35.0813 15.9656 35.2808 15.4132 35.2808C14.8607 35.2808 14.4234 35.0813 14.1471 34.8818L13.7512 35.5174C14.184 35.8375 14.7779 35.9952 15.3717 35.9952C16.4766 35.9952 17.1119 35.4756 17.1119 34.7612C17.1119 34.0839 16.5963 33.7267 15.8091 33.606L15.4132 33.5643C15.0587 33.5225 14.7825 33.4437 14.7825 33.2071C14.7825 32.9287 15.0587 32.771 15.496 32.771C15.9702 32.771 16.4444 32.9705 16.6838 33.0911L17.0337 32.4138ZM39.0807 32.0148C38.6065 32.0148 38.2889 32.256 38.0909 32.5715V32.0937H37.2622V35.9164H38.0909V33.7638C38.0909 33.1282 38.3671 32.7663 38.8827 32.7663C39.0393 32.7663 39.2372 32.8081 39.3983 32.8452L39.6377 32.0566C39.4766 32.0148 39.2418 32.0148 39.0807 32.0148ZM28.4922 34.0096C28.4922 35.1648 29.2841 35.9999 30.5086 35.9999C31.0611 35.9999 31.457 35.8792 31.8529 35.5638L31.457 34.8865C31.1393 35.1277 30.8263 35.2437 30.4672 35.2437C29.7951 35.2437 29.3209 34.7658 29.3209 34.0096C29.3209 33.2906 29.7951 32.8127 30.4672 32.7756C30.8217 32.7756 31.1393 32.8962 31.457 33.1328L31.8529 32.4555C31.457 32.1354 31.0611 32.0194 30.5086 32.0194C29.2841 32.0148 28.4922 32.8545 28.4922 34.0096ZM36.1574 34.0096V32.0983H35.3287V32.5761C35.0525 32.2189 34.6566 32.0194 34.1409 32.0194C33.0729 32.0194 32.2442 32.8545 32.2442 34.0096C32.2442 35.1648 33.0729 35.9999 34.1409 35.9999C34.6934 35.9999 35.0893 35.8004 35.3287 35.4432V35.921H36.1574V34.0096ZM33.1143 34.0096C33.1143 33.3323 33.5471 32.7756 34.2606 32.7756C34.9328 32.7756 35.407 33.2952 35.407 34.0096C35.407 34.687 34.9328 35.2437 34.2606 35.2437C33.5517 35.2019 33.1143 34.6823 33.1143 34.0096ZM23.198 32.0148C22.0931 32.0148 21.3013 32.8127 21.3013 34.005C21.3013 35.2019 22.0931 35.9952 23.2394 35.9952C23.7919 35.9952 24.3443 35.8375 24.7817 35.4756L24.3857 34.8772C24.0681 35.1184 23.6722 35.2761 23.2809 35.2761C22.7652 35.2761 22.2542 35.0349 22.1345 34.3622H24.9382C24.9382 34.2416 24.9382 34.1627 24.9382 34.0421C24.975 32.8127 24.2614 32.0148 23.198 32.0148ZM23.198 32.7339C23.7136 32.7339 24.0681 33.054 24.1463 33.6478H22.1714C22.2496 33.1328 22.6041 32.7339 23.198 32.7339ZM43.7857 34.0096V30.5859H42.957V32.5761C42.6808 32.2189 42.2849 32.0194 41.7692 32.0194C40.7012 32.0194 39.8725 32.8545 39.8725 34.0096C39.8725 35.1648 40.7012 35.9999 41.7692 35.9999C42.3217 35.9999 42.7176 35.8004 42.957 35.4432V35.921H43.7857V34.0096ZM40.7426 34.0096C40.7426 33.3323 41.1754 32.7756 41.8889 32.7756C42.5611 32.7756 43.0353 33.2952 43.0353 34.0096C43.0353 34.687 42.5611 35.2437 41.8889 35.2437C41.1754 35.2019 40.7426 34.6823 40.7426 34.0096ZM13.0008 34.0096V32.0983H12.1722V32.5761C11.8959 32.2189 11.5 32.0194 10.9844 32.0194C9.91636 32.0194 9.0877 32.8545 9.0877 34.0096C9.0877 35.1648 9.91636 35.9999 10.9844 35.9999C11.5369 35.9999 11.9328 35.8004 12.1722 35.4432V35.921H13.0008V34.0096ZM9.92097 34.0096C9.92097 33.3323 10.3537 32.7756 11.0673 32.7756C11.7394 32.7756 12.2136 33.2952 12.2136 34.0096C12.2136 34.687 11.7394 35.2437 11.0673 35.2437C10.3537 35.2019 9.92097 34.6823 9.92097 34.0096Z" fill="black"/>
<path d="M29.2057 3.06665H16.7574V25.6038H29.2057V3.06665Z" fill="#FF5A00"/>
<path d="M17.5861 14.3351C17.5861 9.75619 19.7222 5.69227 23 3.06649C20.5877 1.15515 17.5446 0 14.2254 0C6.36229 0 0 6.41134 0 14.3351C0 22.2588 6.36229 28.6701 14.2254 28.6701C17.5446 28.6701 20.5877 27.515 23 25.6036C19.7176 23.015 17.5861 18.9139 17.5861 14.3351Z" fill="#FF2933"/>
<path d="M46 14.3351C46 22.2588 39.6377 28.6701 31.7746 28.6701C28.4554 28.6701 25.4123 27.515 23 25.6036C26.3193 22.9732 28.4139 18.9139 28.4139 14.3351C28.4139 9.75619 26.2778 5.69227 23 3.06649C25.4077 1.15515 28.4508 0 31.77 0C39.6377 0 46 6.45309 46 14.3351Z" fill="#F79E1B"/>
</g>
<defs>
<clipPath id="clip0_1_2506">
<rect width="46" height="36" fill="white"/>
</clipPath>
</defs>
</svg>
