<svg width="121" height="24" viewBox="0 0 121 24" fill="none" xmlns="http://www.w3.org/2000/svg">
<g clip-path="url(#clip0_1_2450)">
<path fill-rule="evenodd" clip-rule="evenodd" d="M27.4792 7.25391C27.4792 7.25391 27.4792 7.25391 29.4019 7.25391C30.0707 7.25391 30.4887 7.58407 30.4887 8.32693C30.4887 8.32693 30.4887 8.32693 30.4887 11.0508C30.4887 11.0508 30.4887 11.0508 34.2506 11.0508C34.2506 11.0508 34.2506 11.0508 34.2506 8.32693C34.2506 7.58407 34.5849 7.25391 35.4209 7.25391C35.4209 7.25391 35.4209 7.25391 37.2601 7.25391C37.2601 7.25391 37.2601 7.25391 37.2601 9.06979C37.2601 9.06979 37.2601 9.06979 36.5077 9.06979L36.4241 9.15233C36.4241 9.15233 36.4241 9.15233 36.4241 16.8286C36.4241 16.8286 36.4241 16.8286 34.3342 16.8286C34.3342 16.8286 34.3342 16.8286 34.3342 13.0317C34.3342 13.0317 34.3342 13.0317 30.5723 13.0317C30.5723 13.0317 30.5723 13.0317 30.5723 16.8286C30.5723 16.8286 30.5723 16.8286 28.4824 16.8286C28.4824 16.8286 28.4824 16.8286 28.4824 9.15233C28.4824 9.15233 28.4824 9.06979 28.3988 9.06979C28.3988 9.06979 28.3988 9.06979 27.6464 9.06979C27.4792 9.06979 27.4792 9.06979 27.4792 7.25391Z" fill="#FF2933"/>
<path fill-rule="evenodd" clip-rule="evenodd" d="M43.6135 7.17141L42.6103 7.08887H42.5267C39.768 7.08887 37.5109 9.23491 37.5109 11.9587C37.5109 14.7651 39.768 16.9937 42.5267 16.9937H42.6103L43.6135 16.9112C45.9542 16.4159 47.6261 14.435 47.6261 11.9587C47.7097 9.56508 45.9542 7.66665 43.6135 7.17141ZM43.6971 14.7651L42.6103 15.0127H42.5267C40.9383 15.0127 39.768 13.6921 39.768 11.9587C39.768 10.3079 41.0219 9.06983 42.5267 9.06983H42.6103L43.6971 9.31746C44.7002 9.73016 45.4526 10.8032 45.4526 11.9587C45.5362 13.1968 44.7838 14.2699 43.6971 14.7651Z" fill="#FF2933"/>
<path fill-rule="evenodd" clip-rule="evenodd" d="M52.3911 14.9302H51.7223C51.1372 14.9302 51.1372 14.9302 51.1372 14.9302C51.0536 14.9302 51.0536 14.9302 51.0536 14.8476C51.0536 12.7016 51.0536 12.7016 51.0536 12.7016C51.4716 12.7016 51.7223 12.7016 51.9731 12.7016H52.3911C52.5583 12.7016 52.5583 12.7016 52.5583 12.7016C53.2271 12.7016 53.7287 13.1143 53.7287 13.7746C53.7287 14.4349 53.3107 14.8476 52.5583 14.8476H52.3911V14.9302ZM52.5583 16.8286C54.5646 16.8286 55.9858 15.7556 55.9858 13.9397C55.9858 13.0317 55.4842 12.1238 54.6482 11.7936C55.0662 11.3809 55.4842 10.8031 55.4842 9.81265C55.4842 8.24439 54.3139 7.25391 52.4747 7.25391H52.3911H50.97C48.0441 7.25391 48.0441 7.25391 48.0441 7.25391C48.0441 9.06979 48.0441 9.06979 48.0441 9.06979C48.88 9.06979 48.88 9.06979 48.88 9.06979V15.673C48.88 16.4159 49.2144 16.746 49.8832 16.746C51.1372 16.746 51.8059 16.746 52.0567 16.746H52.5583V16.8286ZM52.4747 10.9682H51.6387C51.0536 10.9682 51.0536 10.9682 51.0536 10.9682C51.0536 8.98725 51.0536 8.98725 51.0536 8.98725C51.7223 8.98725 52.1403 8.98725 52.3075 8.98725H52.4747C53.0599 8.98725 53.3943 9.31741 53.3943 9.8952C53.3943 10.5555 53.0599 10.9682 52.4747 10.9682Z" fill="#FF2933"/>
<path fill-rule="evenodd" clip-rule="evenodd" d="M65.0981 14.9302C64.9309 14.9302 64.9309 14.9302 64.8473 14.8476C62.005 7.25391 62.005 7.25391 62.005 7.25391H60.9182H60.751C59.8314 7.25391 59.8314 7.25391 59.8314 7.25391C57.1563 14.8476 57.1563 14.8476 57.1563 14.8476C57.0727 14.9302 57.0727 14.9302 56.9055 14.9302C56.4875 14.9302 56.4875 14.9302 56.4875 14.9302C56.4875 16.8286 56.4875 16.8286 56.4875 16.8286C57.8251 16.8286 57.8251 16.8286 57.8251 16.8286C58.4939 16.8286 58.8283 16.581 59.0791 16.0032C59.6642 14.4349 59.6642 14.4349 59.6642 14.4349C59.9986 14.4349 60.333 14.4349 60.5838 14.4349H61.0854H61.3362C62.5065 14.4349 62.5065 14.4349 62.5065 14.4349C63.0917 15.9206 63.0917 15.9206 63.0917 15.9206C63.2589 16.581 63.5933 16.8286 64.3457 16.8286C65.5996 16.8286 65.5996 16.8286 65.5996 16.8286C65.5996 14.9302 65.5996 14.9302 65.5996 14.9302C65.0981 14.9302 65.0981 14.9302 65.0981 14.9302ZM61.0018 12.619H60.8346C60.0822 12.619 60.0822 12.619 60.0822 12.619C60.751 10.6381 60.751 10.6381 60.751 10.6381C60.751 10.3904 60.8346 10.1428 60.9182 9.97774C61.0018 10.1428 61.0854 10.3904 61.0854 10.6381C61.7542 12.619 61.7542 12.619 61.7542 12.619H61.0018Z" fill="#FF2933"/>
<path fill-rule="evenodd" clip-rule="evenodd" d="M69.696 7.25415C69.696 7.25415 69.696 7.25415 77.3034 7.25415C77.9722 7.25415 78.4737 7.58431 78.4737 8.32717C78.4737 8.32717 78.4737 8.32717 78.4737 14.7653C78.4737 14.8479 78.4738 14.8479 78.5573 14.8479C78.5573 14.8479 78.5573 14.8479 79.2261 14.8479C79.2261 14.8479 79.2261 14.8479 79.2261 16.7463C79.2261 16.7463 79.2261 16.7463 77.387 16.7463C76.6346 16.7463 76.2166 16.4161 76.2166 15.6733C76.2166 15.6733 76.2166 15.6733 76.2166 9.15258C76.2166 9.15258 76.2166 9.07004 76.133 9.07004C76.133 9.07004 76.133 9.07004 72.6219 9.07004C72.6219 9.07004 72.6219 9.07004 72.6219 16.8288C72.6219 16.8288 72.6219 16.8288 70.532 16.8288C70.532 16.8288 70.532 16.8288 70.532 9.07004C70.532 9.07004 70.532 9.07004 69.696 9.07004C69.696 9.07004 69.696 9.07004 69.696 7.25415Z" fill="#FF2933"/>
<path fill-rule="evenodd" clip-rule="evenodd" d="M85.7467 7.17165L84.7435 7.08911H84.6599C81.9012 7.08911 79.7277 9.23516 79.7277 11.959C79.7277 14.7654 81.9012 16.9939 84.6599 16.9939H84.7435L85.7467 16.9114C88.0874 16.4162 89.7593 14.4352 89.7593 11.959C89.7593 9.56532 88.0874 7.66689 85.7467 7.17165ZM85.8303 14.7654L84.7435 15.013H84.6599C83.0715 15.013 81.9012 13.6923 81.9012 11.959C81.9012 10.3082 83.1551 9.07008 84.6599 9.07008H84.7435L85.8303 9.3177C86.8334 9.7304 87.5858 10.8034 87.5858 11.959C87.5858 13.1971 86.917 14.2701 85.8303 14.7654Z" fill="#FF2933"/>
<path fill-rule="evenodd" clip-rule="evenodd" d="M90.1774 7.25442C90.1774 7.25442 90.1774 7.25442 92.1001 7.25442C92.7689 7.25442 93.1033 7.58458 93.1033 8.32744C93.1033 8.32744 93.1033 8.32744 93.1033 14.7656C93.1033 14.8481 93.1033 14.8481 93.1869 14.8481C93.1869 14.8481 93.1869 14.8481 95.6948 14.8481C95.6948 14.8481 95.6948 14.8481 95.6948 7.17188C95.6948 7.17188 95.6948 7.17188 97.7847 7.17188C97.7847 7.17188 97.7847 7.17188 97.7847 14.8481C97.7847 14.8481 97.7847 14.8481 100.293 14.8481C100.376 14.8481 100.376 14.8481 100.376 14.7656C100.376 14.7656 100.376 14.7656 100.376 8.32744C100.376 7.58458 100.711 7.25442 101.379 7.25442C101.379 7.25442 101.379 7.25442 103.302 7.25442C103.302 7.25442 103.302 7.25442 103.302 9.0703C103.302 9.0703 103.302 9.0703 102.55 9.0703C102.466 9.0703 102.466 9.15284 102.466 9.15284C102.466 9.15284 102.466 9.15284 102.466 15.6735C102.466 16.4164 102.132 16.7465 101.463 16.7465C101.463 16.7465 101.463 16.7465 92.1837 16.7465C91.4313 16.7465 91.0133 16.4164 91.0133 15.6735C91.0133 15.6735 91.0133 15.6735 91.0133 9.15284C91.0133 9.15284 91.0133 9.0703 90.9297 9.0703C90.9297 9.0703 90.9297 9.0703 90.1774 9.0703C90.1774 9.0703 90.1774 9.0703 90.1774 7.25442Z" fill="#FF2933"/>
<path fill-rule="evenodd" clip-rule="evenodd" d="M105.058 7.25415C105.058 7.25415 105.058 7.25415 111.578 7.25415C112.331 7.25415 112.665 7.58431 112.665 8.24463C112.665 8.24463 112.665 8.24463 112.665 9.89544H110.742C110.742 9.89544 110.742 9.89544 110.742 9.15258C110.742 9.07004 110.742 9.07004 110.659 9.07004C110.659 9.07004 110.659 9.07004 109.405 9.07004C109.405 9.07004 109.405 9.07004 109.405 16.8288C109.405 16.8288 109.405 16.8288 107.315 16.8288C107.315 16.8288 107.315 16.8288 107.315 9.07004C107.315 9.07004 107.315 9.07004 106.061 9.07004C105.977 9.07004 105.977 9.07004 105.977 9.15258C105.977 9.15258 105.977 9.15258 105.977 9.89544C105.977 9.89544 105.977 9.89544 104.054 9.89544C104.054 9.89544 104.054 9.89544 104.054 8.24463C104.138 7.58431 104.389 7.25415 105.058 7.25415Z" fill="#FF2933"/>
<path fill-rule="evenodd" clip-rule="evenodd" d="M120.523 14.9304C120.356 14.9304 120.356 14.9304 120.272 14.8479C117.514 7.25415 117.514 7.25415 117.514 7.25415H116.51H116.343C115.424 7.25415 115.424 7.25415 115.424 7.25415C112.665 14.8479 112.665 14.8479 112.665 14.8479C112.581 14.9304 112.581 14.9304 112.414 14.9304C111.996 14.9304 111.996 14.9304 111.996 14.9304C111.996 16.8288 111.996 16.8288 111.996 16.8288C113.334 16.8288 113.334 16.8288 113.334 16.8288C114.003 16.8288 114.421 16.5812 114.588 15.9209C115.173 14.4352 115.173 14.4352 115.173 14.4352C115.507 14.4352 115.842 14.4352 116.092 14.4352H116.594H116.845C118.015 14.4352 118.015 14.4352 118.015 14.4352C118.6 15.9209 118.6 15.9209 118.6 15.9209C118.768 16.5812 119.102 16.8288 119.854 16.8288C121.108 16.8288 121.108 16.8288 121.108 16.8288C121.108 14.9304 121.108 14.9304 121.108 14.9304H120.523ZM116.427 12.6193H116.26C115.507 12.6193 115.507 12.6193 115.507 12.6193C116.176 10.6383 116.176 10.6383 116.176 10.6383C116.176 10.3907 116.26 10.1431 116.343 9.97798C116.427 10.1431 116.51 10.3907 116.51 10.6383C117.179 12.6193 117.179 12.6193 117.179 12.6193H116.427Z" fill="#FF2933"/>
<path fill-rule="evenodd" clip-rule="evenodd" d="M18.5343 7.41943C18.6179 7.41943 18.7015 7.41943 18.7851 7.58451C18.7851 7.58451 18.7851 7.58451 22.8814 11.5464C23.1322 11.7941 23.1322 12.1242 22.8814 12.2893C22.8814 12.2893 22.8814 12.2893 18.7851 16.3338C18.7015 16.4989 18.6179 16.4989 18.5343 16.4989C18.4507 16.4989 18.4507 16.3338 18.4507 16.1687V7.66705C18.4507 7.58451 18.4507 7.50197 18.5343 7.41943Z" fill="#FF2933"/>
<path fill-rule="evenodd" clip-rule="evenodd" d="M11.5122 0.815918H11.763L12.0138 0.898458C12.0138 0.898458 12.0138 0.898458 16.2772 5.02547C16.4444 5.27309 16.3608 5.43817 16.11 5.43817C16.11 5.43817 16.11 5.43817 14.3545 5.43817C14.0201 5.43817 13.7693 5.6858 13.7693 5.93342C13.7693 5.93342 13.7693 5.93342 13.7693 8.98741C13.7693 9.31757 13.5185 9.48265 13.1841 9.48265C13.1841 9.48265 13.1841 9.48265 10.091 9.48265C9.75665 9.48265 9.50586 9.23503 9.50586 8.98741C9.50586 8.98741 9.50586 8.98741 9.50586 5.93342C9.50586 5.60326 9.25507 5.43817 8.92068 5.43817H7.16514C6.83075 5.52072 6.74715 5.35563 6.91435 5.10801C6.91435 5.10801 6.91435 5.10801 11.1778 0.980999C11.1778 0.898458 11.5122 0.815918 11.5122 0.815918Z" fill="#FF2933"/>
<path fill-rule="evenodd" clip-rule="evenodd" d="M4.82441 7.33643C4.90801 7.33643 4.90801 7.50151 4.90801 7.66659V16.3333C4.90801 16.4984 4.82441 16.5809 4.82441 16.5809C4.74081 16.5809 4.65722 16.5809 4.49002 16.4984C4.49002 16.4984 4.49002 16.4984 0.310164 12.3714C0.0593724 12.2063 0.0593724 11.8761 0.310164 11.6285C0.310164 11.6285 0.310164 11.6285 4.49002 7.50151C4.65722 7.33643 4.74081 7.33643 4.82441 7.33643Z" fill="#FF2933"/>
<path fill-rule="evenodd" clip-rule="evenodd" d="M10.091 14.1875C10.091 14.1875 10.091 14.1875 13.1841 14.1875C13.5185 14.1875 13.7693 14.4351 13.7693 14.6827C13.7693 14.6827 13.7693 14.6827 13.7693 17.9844C13.7693 18.3145 14.0201 18.5621 14.3545 18.5621H16.0264C16.3608 18.5621 16.4444 18.7272 16.1936 18.8923C16.1936 18.8923 16.1936 18.8923 12.0974 23.0193C12.0138 23.1019 11.8466 23.1844 11.6794 23.1844C11.5122 23.1844 11.345 23.1019 11.2614 23.0193C11.2614 23.0193 11.2614 23.0193 7.16514 18.8923C6.91434 18.7272 7.08154 18.5621 7.33233 18.5621C7.33233 18.5621 7.33233 18.5621 9.08787 18.5621C9.42226 18.5621 9.67305 18.3145 9.67305 17.9844C9.67305 17.9844 9.67305 17.9844 9.67305 14.6827C9.58945 14.4351 9.84025 14.1875 10.091 14.1875Z" fill="#FF2933"/>
</g>
<defs>
<clipPath id="clip0_1_2450">
<rect width="120.714" height="22.3684" fill="white" transform="translate(0.142944 0.815918)"/>
</clipPath>
</defs>
</svg>
