<svg width="121" height="32" viewBox="0 0 121 32" fill="none" xmlns="http://www.w3.org/2000/svg">
<path d="M21.3635 18.3441L10.6738 15.9774C7.48844 15.2741 5.48904 12.1733 6.20799 9.05714C6.92693 5.94097 10.0966 3.98502 13.282 4.68834C16.4674 5.39166 18.4668 8.49243 17.7478 11.6086C17.3857 13.1693 16.4149 14.4373 15.1292 15.2279C15.1292 15.2279 15.1239 15.2279 15.1239 15.233C15.0872 15.2587 15.061 15.3049 15.061 15.3511C15.061 15.4178 15.1082 15.4743 15.1712 15.4897L19.9257 16.5421C20.0411 16.5678 20.1566 16.5267 20.2248 16.4343C21.5367 14.7402 22.3239 12.6251 22.3239 10.3354C22.3239 4.94503 18.0207 0.540281 12.5893 0.227123C12.542 0.221991 12.2482 0.211723 12.1485 0.211723C9.74498 0.175787 7.31002 0.848307 5.18992 2.30115C-0.162806 5.96664 -1.46425 13.1847 2.28265 18.4159L11.8021 31.702C11.8441 31.7585 11.9071 31.7893 11.9805 31.7893C12.054 31.7893 12.1222 31.7534 12.159 31.6969C12.159 31.6969 21.4947 18.6675 21.5 18.6675C21.5262 18.6316 21.5367 18.5905 21.5367 18.5443C21.5367 18.4519 21.4633 18.3646 21.3635 18.3441Z" fill="#FFC525"/>
<path d="M30.5156 6.4339C30.631 6.4339 30.7045 6.46984 30.7412 6.54684L33.9109 11.8397H34.0631L36.7604 6.61872C36.8182 6.49037 36.9336 6.4339 37.0858 6.4339H39.0222C39.1954 6.4339 39.2899 6.60331 39.2111 6.73166L33.6275 16.3882C33.5698 16.5011 33.4543 16.5576 33.3074 16.5576H31.4077C31.1978 16.5576 31.1821 16.4293 31.2555 16.2804L32.7564 13.7751L28.2748 6.68032C28.1961 6.55198 28.2538 6.43904 28.3902 6.43904L30.5156 6.4339Z" fill="#38385B"/>
<path d="M42.5436 6.43366C42.7168 6.43366 42.8112 6.52606 42.8112 6.69548V10.669L47.0829 6.58253C47.1984 6.49013 47.3663 6.43366 47.5762 6.43366H49.8905C50.0637 6.43366 50.1161 6.58253 49.9849 6.71088L45.4456 10.8692L50.2683 16.275C50.3995 16.4034 50.326 16.5522 50.1529 16.5522H47.8753C47.6654 16.5522 47.5132 16.4958 47.3978 16.3674L43.7821 12.1988L42.8007 13.0921V16.2956C42.8007 16.465 42.7063 16.5574 42.5331 16.5574H40.8748C40.7016 16.5574 40.6072 16.465 40.6072 16.2956V6.69034C40.6072 6.52093 40.7016 6.42852 40.8748 6.42852H42.5436" fill="#38385B"/>
<path d="M56.571 11.8192C57.7308 11.8192 58.392 11.1159 58.392 10.1302C58.392 9.16505 57.7255 8.47712 56.571 8.47712H53.8159V11.8192H56.571ZM56.571 6.4339C58.8695 6.4339 60.5961 8.05103 60.5961 10.1302C60.5961 12.2864 58.8695 13.8624 56.571 13.8624H53.8159V16.2958C53.8159 16.4652 53.7215 16.5576 53.5483 16.5576H51.8795C51.7063 16.5576 51.6119 16.4652 51.6119 16.2958V6.69059C51.6119 6.52117 51.7063 6.42877 51.8795 6.42877H56.571" fill="#38385B"/>
<path d="M70.9709 6.4339C71.144 6.4339 71.2385 6.52631 71.2385 6.69572V16.2958C71.2385 16.4652 71.144 16.5576 70.9709 16.5576H69.3021C69.1342 16.5576 69.0344 16.4652 69.0344 16.2958V8.45659H64.4374V16.2958C64.4374 16.4652 64.3429 16.5576 64.1698 16.5576H62.501C62.3278 16.5576 62.2333 16.4652 62.2333 16.2958V6.69059C62.2333 6.52117 62.3278 6.42877 62.501 6.42877H70.9709" fill="#38385B"/>
<path d="M75.4211 11.5007C75.4211 13.3386 76.7487 14.6785 78.6484 14.6785C80.5271 14.6785 81.8601 13.3437 81.8601 11.5007C81.8601 9.62688 80.5324 8.30751 78.6484 8.30751C76.7487 8.30751 75.4211 9.62688 75.4211 11.5007ZM78.6484 6.28482C81.6292 6.28482 84.0799 8.5334 84.0799 11.5058C84.0799 14.4988 81.6292 16.7063 78.6484 16.7063C75.6467 16.7063 73.2012 14.4937 73.2012 11.5058C73.196 8.52826 75.6467 6.28482 78.6484 6.28482Z" fill="#38385B"/>
<path d="M91.4474 14.5298V6.69059C91.4474 6.52117 91.5418 6.42877 91.715 6.42877H93.3471C93.5203 6.42877 93.6147 6.52117 93.6147 6.69059V14.5298H96.8631V6.69059C96.8631 6.52117 96.9575 6.42877 97.1307 6.42877H98.7628C98.9359 6.42877 99.0304 6.52117 99.0304 6.69059V16.2958C99.0304 16.4652 98.9359 16.5576 98.7628 16.5576H86.3098C86.1786 16.5576 86.0422 16.4652 86.0422 16.2958V6.69059C86.0422 6.52117 86.1366 6.42877 86.3098 6.42877H87.9419C88.115 6.42877 88.2095 6.52117 88.2095 6.69059V14.5298H91.4474Z" fill="#38385B"/>
<path d="M109.578 6.4339C109.746 6.4339 109.846 6.52631 109.846 6.69572V8.22044C109.846 8.38985 109.752 8.48226 109.578 8.48226H106.272V16.2958C106.272 16.4652 106.178 16.5576 106.005 16.5576H104.336C104.163 16.5576 104.068 16.4652 104.068 16.2958V8.47712H100.762C100.589 8.47712 100.495 8.38472 100.495 8.21531V6.69059C100.495 6.52117 100.589 6.42877 100.762 6.42877H109.578" fill="#38385B"/>
<path d="M113.336 12.5995H116.941L115.272 8.4412H115.063L113.336 12.5995ZM117.702 14.5503H112.538L111.819 16.3317C111.762 16.4806 111.646 16.5525 111.499 16.5525H109.621C109.432 16.5525 109.374 16.4601 109.432 16.2907L113.913 6.57765C113.95 6.48525 114.029 6.42877 114.16 6.42877H116.322C116.453 6.42877 116.532 6.48525 116.569 6.57765L120.84 16.2547C120.898 16.4036 120.804 16.5525 120.63 16.5525H118.825C118.636 16.5525 118.5 16.4601 118.426 16.2907L117.702 14.5503Z" fill="#38385B"/>
<path d="M29.739 25.2339V20.901H32.6567V21.399H30.3267V25.2339H29.739Z" fill="#38385B"/>
<path d="M34.0892 23.0619C34.0892 24.1452 34.6927 24.8485 35.6321 24.8485C36.5609 24.8485 37.1644 24.14 37.1644 23.0619C37.1644 21.989 36.5609 21.2959 35.6216 21.2959C34.572 21.2959 34.0892 22.1327 34.0892 23.0619ZM37.7522 23.0311C37.7522 24.3043 37.0332 25.3362 35.6268 25.3362C34.2047 25.3362 33.5015 24.2786 33.5015 23.0157C33.5015 21.6656 34.3306 20.7928 35.6216 20.7928C36.9965 20.798 37.7522 21.7374 37.7522 23.0311Z" fill="#38385B"/>
<path d="M42.3335 25.234H41.7458V21.3991H40.1085L40.0192 23.8428C39.9878 24.7155 39.6624 25.3264 38.9907 25.3264C38.8647 25.3264 38.6811 25.2853 38.5656 25.2391V24.7514C38.6443 24.8028 38.8175 24.813 38.8857 24.813C39.2058 24.813 39.4367 24.6436 39.463 23.5399L39.5417 20.896H42.3283L42.3335 25.234Z" fill="#38385B"/>
<path d="M44.3013 23.0619C44.3013 24.1452 44.9048 24.8485 45.8442 24.8485C46.773 24.8485 47.3765 24.14 47.3765 23.0619C47.3765 21.989 46.773 21.2959 45.8337 21.2959C44.7894 21.2959 44.3013 22.1327 44.3013 23.0619ZM47.9643 23.0311C47.9643 24.3043 47.2506 25.3362 45.8389 25.3362C44.4168 25.3362 43.7136 24.2786 43.7136 23.0157C43.7136 21.6656 44.5427 20.7928 45.8337 20.7928C47.2086 20.798 47.9643 21.7374 47.9643 23.0311Z" fill="#38385B"/>
<path d="M49.9169 24.7513H51.0872C51.6802 24.7513 52.2574 24.7154 52.2574 23.9556C52.2574 23.2009 51.5805 23.2061 50.9875 23.2061H49.9169V24.7513ZM49.9169 22.7543H50.9717C51.4703 22.7543 52.0685 22.7184 52.0685 22.0664C52.0685 21.4144 51.549 21.3836 51.0294 21.3836H49.9222C49.9169 21.3887 49.9169 22.7543 49.9169 22.7543ZM51.2394 20.901C51.974 20.901 52.651 21.1885 52.651 21.9842C52.651 22.4103 52.3939 22.7748 51.995 22.9134C52.5408 23.0366 52.8504 23.4371 52.8504 24.0121C52.8504 25.008 52.016 25.2339 51.1711 25.2339H49.3449V20.901H51.2394Z" fill="#38385B"/>
<path d="M57.762 25.2339H57.1742V23.2061H54.8337V25.2339H54.246V20.901H54.8337V22.7081H57.1742V20.901H57.762V25.2339Z" fill="#38385B"/>
<path d="M61.0312 21.4452L60.2651 23.4473H61.7869L61.0312 21.4452ZM63.1094 25.2339H62.4534L61.9601 23.9043H60.0971L59.5934 25.2339H58.9689L60.7111 20.901H61.3723L63.1094 25.2339Z" fill="#38385B"/>
<path d="M70.3252 25.2339H69.7375V21.399H67.397V25.2339H66.8092V20.901H70.32L70.3252 25.2339Z" fill="#38385B"/>
<path d="M72.2984 23.0619C72.2984 24.1452 72.9019 24.8485 73.8412 24.8485C74.7701 24.8485 75.3736 24.14 75.3736 23.0619C75.3736 21.989 74.7701 21.2959 73.8307 21.2959C72.7864 21.2959 72.2984 22.1327 72.2984 23.0619ZM75.9613 23.0311C75.9613 24.3043 75.2424 25.3362 73.836 25.3362C72.4138 25.3362 71.7106 24.2786 71.7106 23.0157C71.7106 21.6656 72.5398 20.7928 73.8307 20.7928C75.2109 20.798 75.9613 21.7374 75.9613 23.0311Z" fill="#38385B"/>
<path d="M77.3411 20.901H77.9288V24.7359H79.8967V20.901H80.4845V24.7359H82.4524V20.901H83.0401V25.2339H77.3463L77.3411 20.901Z" fill="#38385B"/>
<path d="M87.8424 21.399H86.352V25.2339H85.7643V21.399H84.2739V20.901H87.8372V21.399" fill="#38385B"/>
<path d="M90.1092 21.4452L89.3431 23.4473H90.8649L90.1092 21.4452ZM92.1874 25.2339H91.5314L91.0381 23.9043H89.1751L88.6714 25.2339H88.0521L89.7944 20.901H90.4556L92.1874 25.2339Z" fill="#38385B"/>
<path d="M97.6242 22.6414L99.5659 25.2339H98.8207L97.2149 23.0315L96.4802 23.7143V25.2339H95.8925V20.901H96.4802V23.0521L98.7263 20.901H99.4924L97.6242 22.6414Z" fill="#38385B"/>
<path d="M101.392 22.975H102.52C103.087 22.975 103.522 22.821 103.522 22.1845C103.522 21.4914 103.019 21.3939 102.436 21.3939H101.392V22.975ZM102.63 20.901C103.48 20.901 104.105 21.2501 104.105 22.1485C104.105 23.1291 103.459 23.4576 102.594 23.4576H101.392V25.2339H100.804V20.901H102.63Z" fill="#38385B"/>
<path d="M106.698 21.4452L105.931 23.4473H107.453L106.698 21.4452ZM108.77 25.2339H108.115L107.621 23.9043H105.758L105.254 25.2339H104.635L106.378 20.901H107.039L108.77 25.2339Z" fill="#38385B"/>
<path d="M111.153 20.5263H110.591V19.9102H111.153V20.5263ZM110.576 25.2339H109.988V20.901H110.576V25.2339ZM109.977 20.5263H109.416V19.9102H109.977V20.5263Z" fill="#38385B"/>
<path d="M115.708 25.2339H115.125V23.2061H112.785V25.2339H112.197V20.901H112.785V22.7081H115.125V20.901H115.708V25.2339Z" fill="#38385B"/>
<path d="M117.319 20.901H117.907V24.5716H117.917L120.09 20.901H120.83V25.2339H120.247V21.5479H120.237L118.054 25.2339H117.319V20.901Z" fill="#38385B"/>
</svg>
